<svg width="16" height="16" viewBox="0 0 16 16" fill="none" xmlns="http://www.w3.org/2000/svg">
<g clip-path="url(#clip0_69_736)">
<path d="M2.02969 3.54313L3.59149 1.98281C3.70166 1.87215 3.8326 1.78436 3.97681 1.72446C4.12101 1.66457 4.27563 1.63375 4.43177 1.63379C4.75 1.63379 5.04916 1.75844 5.27353 1.98281L6.9541 3.66339C7.06476 3.77356 7.15256 3.9045 7.21245 4.04871C7.27235 4.19291 7.30316 4.34753 7.30312 4.50367C7.30312 4.8219 7.17847 5.12106 6.9541 5.34543L5.7252 6.57433C6.01286 7.20838 6.4128 7.78518 6.90571 8.2769C7.39739 8.77102 7.97414 9.17241 8.60828 9.46181L9.83719 8.23291C9.94736 8.12226 10.0783 8.03446 10.2225 7.97456C10.3667 7.91467 10.5213 7.88385 10.6775 7.88389C10.9957 7.88389 11.2949 8.00854 11.5192 8.23291L13.2013 9.91202C13.3121 10.0224 13.3999 10.1536 13.4598 10.298C13.5197 10.4425 13.5505 10.5974 13.5503 10.7538C13.5503 11.072 13.4256 11.3712 13.2013 11.5955L11.6424 13.1544C11.2846 13.5137 10.7904 13.7175 10.283 13.7175C10.1759 13.7175 10.0733 13.7087 9.9721 13.6911C7.9953 13.3656 6.03463 12.3141 4.4523 10.7332C2.87145 9.15385 1.82145 7.19465 1.4915 5.21198C1.39178 4.60633 1.59269 3.98308 2.02969 3.54313V3.54313Z" fill="#4380FF"/>
</g>
<defs>
<clipPath id="clip0_69_736">
<rect width="15.0167" height="15.0167" fill="white" transform="matrix(-1 0 0 1 15.0168 0.16748)"/>
</clipPath>
</defs>
</svg>
