<svg width="700" height="700" viewBox="0 0 700 700" fill="none" xmlns="http://www.w3.org/2000/svg">
<g clip-path="url(#clip0_406_1695)">
<path d="M700 0H0V700H700V0Z" fill="#00B7FF"/>
<path d="M147.79 409L122.12 369.05L98.83 409H71.97L109.37 349.16L71.46 290.34H98.83L124.5 330.12L147.62 290.34H174.48L137.25 350.01L175.16 409H147.79ZM217.073 328.42C220.133 324.113 224.326 320.543 229.653 317.71C235.093 314.763 241.27 313.29 248.183 313.29C256.23 313.29 263.483 315.273 269.943 319.24C276.516 323.207 281.673 328.873 285.413 336.24C289.266 343.493 291.193 351.937 291.193 361.57C291.193 371.203 289.266 379.76 285.413 387.24C281.673 394.607 276.516 400.33 269.943 404.41C263.483 408.49 256.23 410.53 248.183 410.53C241.27 410.53 235.15 409.113 229.823 406.28C224.61 403.447 220.36 399.877 217.073 395.57V453.88H193.273V314.82H217.073V328.42ZM266.883 361.57C266.883 355.903 265.693 351.03 263.313 346.95C261.046 342.757 257.986 339.583 254.133 337.43C250.393 335.277 246.313 334.2 241.893 334.2C237.586 334.2 233.506 335.333 229.653 337.6C225.913 339.753 222.853 342.927 220.473 347.12C218.206 351.313 217.073 356.243 217.073 361.91C217.073 367.577 218.206 372.507 220.473 376.7C222.853 380.893 225.913 384.123 229.653 386.39C233.506 388.543 237.586 389.62 241.893 389.62C246.313 389.62 250.393 388.487 254.133 386.22C257.986 383.953 261.046 380.723 263.313 376.53C265.693 372.337 266.883 367.35 266.883 361.57ZM332.288 283.2V409H308.488V283.2H332.288Z" fill="white"/>
<path d="M464.1 443.625V445.95H459.475V461H456.625V445.95H451.975V443.625H464.1ZM469.836 449.225C470.253 448.525 470.803 447.983 471.486 447.6C472.186 447.2 473.011 447 473.961 447V449.95H473.236C472.12 449.95 471.27 450.233 470.686 450.8C470.12 451.367 469.836 452.35 469.836 453.75V461H466.986V447.225H469.836V449.225ZM475.631 454.05C475.631 452.667 475.914 451.442 476.481 450.375C477.064 449.308 477.848 448.483 478.831 447.9C479.831 447.3 480.931 447 482.131 447C483.214 447 484.156 447.217 484.956 447.65C485.773 448.067 486.423 448.592 486.906 449.225V447.225H489.781V461H486.906V458.95C486.423 459.6 485.764 460.142 484.931 460.575C484.098 461.008 483.148 461.225 482.081 461.225C480.898 461.225 479.814 460.925 478.831 460.325C477.848 459.708 477.064 458.858 476.481 457.775C475.914 456.675 475.631 455.433 475.631 454.05ZM486.906 454.1C486.906 453.15 486.706 452.325 486.306 451.625C485.923 450.925 485.414 450.392 484.781 450.025C484.148 449.658 483.464 449.475 482.731 449.475C481.998 449.475 481.314 449.658 480.681 450.025C480.048 450.375 479.531 450.9 479.131 451.6C478.748 452.283 478.556 453.1 478.556 454.05C478.556 455 478.748 455.833 479.131 456.55C479.531 457.267 480.048 457.817 480.681 458.2C481.331 458.567 482.014 458.75 482.731 458.75C483.464 458.75 484.148 458.567 484.781 458.2C485.414 457.833 485.923 457.3 486.306 456.6C486.706 455.883 486.906 455.05 486.906 454.1ZM498.849 458.45L502.749 447.225H505.774L500.524 461H497.124L491.899 447.225H494.949L498.849 458.45ZM520.554 453.775C520.554 454.292 520.52 454.758 520.454 455.175H509.929C510.012 456.275 510.42 457.158 511.154 457.825C511.887 458.492 512.787 458.825 513.854 458.825C515.387 458.825 516.47 458.183 517.104 456.9H520.179C519.762 458.167 519.004 459.208 517.904 460.025C516.82 460.825 515.47 461.225 513.854 461.225C512.537 461.225 511.354 460.933 510.304 460.35C509.27 459.75 508.454 458.917 507.854 457.85C507.27 456.767 506.979 455.517 506.979 454.1C506.979 452.683 507.262 451.442 507.829 450.375C508.412 449.292 509.22 448.458 510.254 447.875C511.304 447.292 512.504 447 513.854 447C515.154 447 516.312 447.283 517.329 447.85C518.345 448.417 519.137 449.217 519.704 450.25C520.27 451.267 520.554 452.442 520.554 453.775ZM517.579 452.875C517.562 451.825 517.187 450.983 516.454 450.35C515.72 449.717 514.812 449.4 513.729 449.4C512.745 449.4 511.904 449.717 511.204 450.35C510.504 450.967 510.087 451.808 509.954 452.875H517.579ZM526.208 442.5V461H523.358V442.5H526.208ZM542.169 461.175C541.003 461.175 539.953 460.975 539.019 460.575C538.086 460.158 537.353 459.575 536.819 458.825C536.286 458.075 536.019 457.2 536.019 456.2H539.069C539.136 456.95 539.428 457.567 539.944 458.05C540.478 458.533 541.219 458.775 542.169 458.775C543.153 458.775 543.919 458.542 544.469 458.075C545.019 457.592 545.294 456.975 545.294 456.225C545.294 455.642 545.119 455.167 544.769 454.8C544.436 454.433 544.011 454.15 543.494 453.95C542.994 453.75 542.294 453.533 541.394 453.3C540.261 453 539.336 452.7 538.619 452.4C537.919 452.083 537.319 451.6 536.819 450.95C536.319 450.3 536.069 449.433 536.069 448.35C536.069 447.35 536.319 446.475 536.819 445.725C537.319 444.975 538.019 444.4 538.919 444C539.819 443.6 540.861 443.4 542.044 443.4C543.728 443.4 545.103 443.825 546.169 444.675C547.253 445.508 547.853 446.658 547.969 448.125H544.819C544.769 447.492 544.469 446.95 543.919 446.5C543.369 446.05 542.644 445.825 541.744 445.825C540.928 445.825 540.261 446.033 539.744 446.45C539.228 446.867 538.969 447.467 538.969 448.25C538.969 448.783 539.128 449.225 539.444 449.575C539.778 449.908 540.194 450.175 540.694 450.375C541.194 450.575 541.878 450.792 542.744 451.025C543.894 451.342 544.828 451.658 545.544 451.975C546.278 452.292 546.894 452.783 547.394 453.45C547.911 454.1 548.169 454.975 548.169 456.075C548.169 456.958 547.928 457.792 547.444 458.575C546.978 459.358 546.286 459.992 545.369 460.475C544.469 460.942 543.403 461.175 542.169 461.175ZM557.507 461.225C556.207 461.225 555.032 460.933 553.982 460.35C552.932 459.75 552.107 458.917 551.507 457.85C550.907 456.767 550.607 455.517 550.607 454.1C550.607 452.7 550.916 451.458 551.532 450.375C552.149 449.292 552.991 448.458 554.057 447.875C555.124 447.292 556.316 447 557.632 447C558.949 447 560.141 447.292 561.207 447.875C562.274 448.458 563.116 449.292 563.732 450.375C564.349 451.458 564.657 452.7 564.657 454.1C564.657 455.5 564.341 456.742 563.707 457.825C563.074 458.908 562.207 459.75 561.107 460.35C560.024 460.933 558.824 461.225 557.507 461.225ZM557.507 458.75C558.241 458.75 558.924 458.575 559.557 458.225C560.207 457.875 560.732 457.35 561.132 456.65C561.532 455.95 561.732 455.1 561.732 454.1C561.732 453.1 561.541 452.258 561.157 451.575C560.774 450.875 560.266 450.35 559.632 450C558.999 449.65 558.316 449.475 557.582 449.475C556.849 449.475 556.166 449.65 555.532 450C554.916 450.35 554.424 450.875 554.057 451.575C553.691 452.258 553.507 453.1 553.507 454.1C553.507 455.583 553.882 456.733 554.632 457.55C555.399 458.35 556.357 458.75 557.507 458.75ZM570.325 442.5V461H567.475V442.5H570.325ZM586.541 447.225V461H583.691V459.375C583.241 459.942 582.65 460.392 581.916 460.725C581.2 461.042 580.433 461.2 579.616 461.2C578.533 461.2 577.558 460.975 576.691 460.525C575.841 460.075 575.166 459.408 574.666 458.525C574.183 457.642 573.941 456.575 573.941 455.325V447.225H576.766V454.9C576.766 456.133 577.075 457.083 577.691 457.75C578.308 458.4 579.15 458.725 580.216 458.725C581.283 458.725 582.125 458.4 582.741 457.75C583.375 457.083 583.691 456.133 583.691 454.9V447.225H586.541ZM593.627 449.55V457.175C593.627 457.692 593.743 458.067 593.977 458.3C594.227 458.517 594.643 458.625 595.227 458.625H596.977V461H594.727C593.443 461 592.46 460.7 591.777 460.1C591.093 459.5 590.752 458.525 590.752 457.175V449.55H589.127V447.225H590.752V443.8H593.627V447.225H596.977V449.55H593.627ZM601.054 445.4C600.537 445.4 600.104 445.225 599.754 444.875C599.404 444.525 599.229 444.092 599.229 443.575C599.229 443.058 599.404 442.625 599.754 442.275C600.104 441.925 600.537 441.75 601.054 441.75C601.554 441.75 601.979 441.925 602.329 442.275C602.679 442.625 602.854 443.058 602.854 443.575C602.854 444.092 602.679 444.525 602.329 444.875C601.979 445.225 601.554 445.4 601.054 445.4ZM602.454 447.225V461H599.604V447.225H602.454ZM612.17 461.225C610.87 461.225 609.695 460.933 608.645 460.35C607.595 459.75 606.77 458.917 606.17 457.85C605.57 456.767 605.27 455.517 605.27 454.1C605.27 452.7 605.579 451.458 606.195 450.375C606.812 449.292 607.654 448.458 608.72 447.875C609.787 447.292 610.979 447 612.295 447C613.612 447 614.804 447.292 615.87 447.875C616.937 448.458 617.779 449.292 618.395 450.375C619.012 451.458 619.32 452.7 619.32 454.1C619.32 455.5 619.004 456.742 618.37 457.825C617.737 458.908 616.87 459.75 615.77 460.35C614.687 460.933 613.487 461.225 612.17 461.225ZM612.17 458.75C612.904 458.75 613.587 458.575 614.22 458.225C614.87 457.875 615.395 457.35 615.795 456.65C616.195 455.95 616.395 455.1 616.395 454.1C616.395 453.1 616.204 452.258 615.82 451.575C615.437 450.875 614.929 450.35 614.295 450C613.662 449.65 612.979 449.475 612.245 449.475C611.512 449.475 610.829 449.65 610.195 450C609.579 450.35 609.087 450.875 608.72 451.575C608.354 452.258 608.17 453.1 608.17 454.1C608.17 455.583 608.545 456.733 609.295 457.55C610.062 458.35 611.02 458.75 612.17 458.75ZM629.088 447C630.171 447 631.138 447.225 631.988 447.675C632.854 448.125 633.529 448.792 634.013 449.675C634.496 450.558 634.738 451.625 634.738 452.875V461H631.913V453.3C631.913 452.067 631.604 451.125 630.988 450.475C630.371 449.808 629.529 449.475 628.463 449.475C627.396 449.475 626.546 449.808 625.913 450.475C625.296 451.125 624.988 452.067 624.988 453.3V461H622.138V447.225H624.988V448.8C625.454 448.233 626.046 447.792 626.763 447.475C627.496 447.158 628.271 447 629.088 447Z" fill="white"/>
<path d="M507.53 330.44C510.59 325.453 514.557 321.543 519.43 318.71C524.417 315.877 530.083 314.46 536.43 314.46V339.45H530.14C522.66 339.45 516.993 341.207 513.14 344.72C509.4 348.233 507.53 354.353 507.53 363.08V410H483.73V315.82H507.53V330.44ZM640.01 360.87C640.01 364.27 639.784 367.33 639.33 370.05H570.48C571.047 376.85 573.427 382.177 577.62 386.03C581.814 389.883 586.97 391.81 593.09 391.81C601.93 391.81 608.22 388.013 611.96 380.42H637.63C634.91 389.487 629.697 396.967 621.99 402.86C614.284 408.64 604.82 411.53 593.6 411.53C584.534 411.53 576.374 409.547 569.12 405.58C561.98 401.5 556.37 395.777 552.29 388.41C548.324 381.043 546.34 372.543 546.34 362.91C546.34 353.163 548.324 344.607 552.29 337.24C556.257 329.873 561.81 324.207 568.95 320.24C576.09 316.273 584.307 314.29 593.6 314.29C602.554 314.29 610.544 316.217 617.57 320.07C624.71 323.923 630.207 329.42 634.06 336.56C638.027 343.587 640.01 351.69 640.01 360.87ZM615.36 354.07C615.247 347.95 613.037 343.077 608.73 339.45C604.424 335.71 599.154 333.84 592.92 333.84C587.027 333.84 582.04 335.653 577.96 339.28C573.994 342.793 571.557 347.723 570.65 354.07H615.36Z" fill="white"/>
<path d="M373.159 306.521C382.026 301.39 391.937 298.299 402.163 297.476C413.12 296.938 423.175 299.5 437.123 306.137C451.07 312.774 458.779 319.103 464.683 329.994C470.587 340.884 473.784 348.905 470.561 363.076C467.338 377.246 466.359 391.494 460.635 401.334C454.912 411.174 445.347 417.99 431.167 421.526C416.988 425.063 396.827 427.369 379.424 417.836C362.022 408.304 349.776 394.133 345.264 374.53C340.752 354.927 344.465 344.728 347.842 335.529C352.893 323.387 361.779 313.206 373.159 306.521Z" fill="#1D1D1B"/>
<path d="M377.981 307.982C384.136 304.603 390.851 302.346 397.806 301.319C408.119 300.115 424.799 304.702 426.552 305.496C428.306 306.291 429.775 306.778 429.131 307.264C428.486 307.751 422.608 312.851 420.52 313.184C418.431 313.517 411.187 311.749 405.695 311.979C400.204 312.21 396.517 313.261 393.862 313.261C391.206 313.261 387.416 310.365 384.838 310.134C382.26 309.904 376.769 308.623 377.981 307.982Z" fill="#4EAE4D"/>
<path d="M372.902 311.979C376.462 310.942 380.283 311.252 383.627 312.851C387.803 315.106 387.339 316.054 393.037 315.977C398.734 315.9 401.519 314.952 403.195 315.336C404.87 315.721 411.986 318.796 418.277 317.591C422.246 316.937 426.017 315.404 429.311 313.107C431.167 311.902 432.276 309.904 433.41 310.057C434.545 310.211 444.78 316.233 444.599 316.874C443.483 318.508 441.966 319.831 440.191 320.717C436.939 322.874 434.429 325.968 432.998 329.584C431.709 333.351 430.987 344.651 432.688 345.779C434.39 346.906 438.721 345.292 440.423 346.573C442.124 347.854 442.511 351.852 445.347 352.185C448.183 352.518 449.369 350.417 451.947 352.185C454.525 353.953 454.525 355.286 458.547 355.388C462.569 355.491 466.281 354.568 466.513 355.388C466.777 356.613 466.67 357.888 466.204 359.052C465.791 359.309 452.179 360.897 448.956 361.077C445.734 361.256 446.378 361.948 444.599 361.077C442.82 360.206 440.01 356.9 435.859 356.259C431.709 355.619 419.024 354.824 416.523 354.824C414.023 354.824 413.301 354.824 413.043 356.029C412.785 357.233 413.301 369.302 412.012 373.249C410.723 377.195 411.599 383.652 416.266 385.497C420.932 387.342 425.779 388.291 426.423 389.982C427.068 391.673 429.337 402.794 431.348 406.561C433.359 410.328 436.169 414.633 435.215 415.427C430.292 417.521 425.075 418.852 419.746 419.374C414.798 419.98 409.793 419.98 404.845 419.374C404.845 419.374 401.854 403.999 401.055 402.615C400.188 400.74 399.824 398.675 399.998 396.619C400.333 395.568 406.031 384.139 405.309 381.244C404.587 378.348 403.452 375.401 400.797 374.684C398.141 373.966 393.707 374.684 386.54 374.684C381.925 374.749 377.315 374.371 372.773 373.556C371.329 373.249 370.504 373.556 369.859 372.839C369.215 372.121 363.981 362.589 364.703 361.717C365.425 360.846 372.773 358.745 373.082 357.054C373.391 355.362 372.927 351.288 374.784 351.134C376.64 350.981 384.761 352.108 387.339 350.75C389.917 349.392 390.252 346.266 390.33 343.524C390.407 340.782 389.376 334.811 388.164 333.684C386.952 332.556 375.274 329.046 370.839 326.714C366.405 324.382 362.666 322.562 363.156 321.025C365.732 317.365 369.052 314.283 372.902 311.979Z" fill="#85BFE9"/>
<path d="M377.826 317.437C379.218 317.258 379.347 318.334 378.857 319.282C378.367 320.231 378.857 323.69 380.404 323.613C385.846 322.389 391.355 321.482 396.904 320.897C403.958 321.233 410.917 322.66 417.529 325.125C419.463 326.176 420.365 330.25 420.52 331.454C418.663 336.412 416.286 341.162 413.43 345.625C412.708 346.009 405.206 343.062 399.817 340.5C394.429 337.937 392.083 336.733 391.851 335.682C391.63 334.186 391.196 332.727 390.562 331.352C390.072 331.121 382.827 330.634 379.347 328.559C375.866 326.483 372.747 323.101 373.391 321.666C374.425 319.858 375.966 318.389 377.826 317.437Z" fill="#1D1D1B"/>
<path d="M387.803 324.792C394.032 323.966 400.359 324.235 406.495 325.586C414.719 327.201 416.008 328.559 415.776 330.558C415.544 332.556 412.476 340.808 411.341 340.398C406.655 338.85 402.081 336.983 397.652 334.811C397.084 333.991 396.904 329.994 394.506 329.276C392.109 328.559 387.081 327.021 385.405 326.381C383.73 325.74 384.116 325.099 384.503 325.099C384.89 325.099 387.803 324.792 387.803 324.792Z" fill="#4EAE4D"/>
<path d="M447.667 317.976C448.209 317.796 455.247 320.718 460.068 329.84C464.889 338.963 466.436 350.186 465.869 351.211C465.302 352.236 463.549 352.339 461.924 351.852C460.3 351.365 453.906 347.854 452.514 347.854C451.122 347.854 448.879 349.059 447.925 347.854C446.971 346.65 444.058 343.063 441.145 343.063C438.231 343.063 437.613 343.549 437.123 342.909C436.633 342.268 435.034 328.738 438.077 326.253C441.119 323.767 443.8 322.178 445.012 321.128C446.224 320.077 446.945 318.232 447.667 317.976Z" fill="#4EAE4D"/>
<path d="M417.065 358.438C417.993 358.438 431.812 357.413 434.545 360.052C437.277 362.691 439.546 365.561 441.867 365.484C444.187 365.408 465.559 363.563 465.559 364.383C465.559 365.203 463.136 383.601 459.424 392.954C456.515 400.219 451.566 406.499 445.167 411.046C442.202 412.737 439.134 413.378 438.902 412.891C436.198 408.139 434.209 403.02 432.998 397.695C431.245 389.444 430.755 385.6 428.022 384.883C425.289 384.165 418.509 382.576 417.22 380.962C416.348 379.508 415.852 377.861 415.776 376.17C415.776 376.17 416.498 366.228 416.498 364.075C416.498 361.923 416.575 358.438 417.065 358.438Z" fill="#4EAE4D"/>
<path d="M369.937 376.913C373.904 378.49 378.142 379.282 382.415 379.245C390.948 379.399 399.327 378.451 400.23 379.476C401.132 380.501 400.951 384.037 399.095 387.419C397.925 389.561 396.9 391.779 396.027 394.056C393.481 391.716 390.758 389.574 387.88 387.65C387.546 387.792 387.273 388.048 387.112 388.373C386.952 388.697 386.913 389.068 387.004 389.418C387.339 390.136 394.738 395.107 395.073 395.747C395.123 397.247 395.037 398.748 394.816 400.232C392.393 398.011 389.808 395.972 387.081 394.133C386.127 393.979 385.483 396.311 385.792 396.696C386.101 397.08 394.893 403.102 396.105 404.152C397.302 406.127 398.041 408.342 398.27 410.636C398.038 410.636 388.216 402.717 387.648 402.615C387.081 402.512 386.926 405.177 386.926 405.177C386.926 405.177 398.528 413.352 398.915 413.992C399.532 415.533 399.915 417.157 400.049 418.81C396.922 418.208 393.832 417.429 390.794 416.478C387.571 415.274 384.735 414.633 384.735 414.402C384.735 414.172 381.719 404.716 377.491 400.616C375.158 398.642 373.11 396.357 371.406 393.826C370.913 390.669 370.612 387.486 370.504 384.293C370.401 382.115 369.447 376.913 369.937 376.913Z" fill="#4EAE4D"/>
<path d="M352.122 377.4C352.612 376.452 358.722 378.041 361.635 379.168C364.548 380.296 365.502 381.731 365.58 383.96C365.657 386.189 365.244 395.901 367.255 397.669C370.462 399.883 373.159 402.748 375.17 406.074C376.338 407.789 377.209 409.686 377.748 411.686C371.765 408.058 366.582 403.264 362.512 397.592C354.287 387.009 351.89 377.887 352.122 377.4Z" fill="#85BFE9"/>
<path d="M349.776 371.711C347.365 363.657 347.258 355.094 349.467 346.983C352.999 332.402 359.779 324.638 360.346 324.715C360.913 324.792 374.268 332.402 379.682 334.965C385.096 337.527 385.406 337.527 385.792 338.655C386.107 341.515 385.942 344.407 385.302 347.214C384.838 347.444 375.17 346.983 372.412 347.214C369.653 347.444 368.828 351.288 369.034 352.826C369.241 354.363 369.37 355.055 368.725 355.542C368.081 356.029 359.444 358.335 358.98 360.667C358.516 362.999 365.09 374.427 364.136 374.761C363.182 375.094 352.354 374.351 349.776 371.711Z" fill="#4EAE4D"/>
<path d="M354.288 343.524C354.967 340.314 355.968 337.181 357.278 334.171C358.567 332.249 359.134 331.839 359.702 331.993C360.269 332.146 361.867 332.889 361.713 333.351C361.558 333.812 358.799 339.116 358.077 341.448C357.356 343.78 358.077 343.78 357.046 344.011C356.015 344.241 354.623 344.088 354.288 343.524Z" fill="#1D1D1B"/>
<path d="M428.125 318.949C428.538 318.591 434.648 317.104 435.06 317.668C435.473 318.232 435.937 318.796 435.524 319.103C433.377 320.169 431.109 320.978 428.77 321.512C428.254 321.256 427.609 319.334 428.125 318.949Z" fill="#1D1D1B"/>
<path d="M424.155 337.758C424.542 338.168 427.945 343.601 427.532 344.088C427.12 344.575 427.532 345.292 426.656 344.882C424.93 343.297 423.575 341.355 422.685 339.193C422.969 338.553 424.155 337.758 424.155 337.758Z" fill="#1D1D1B"/>
<path d="M420.391 341.448C422.064 343.064 423.552 344.86 424.825 346.804C424.825 347.291 424.825 348.008 424.026 347.778C422.18 346.476 420.56 344.883 419.23 343.063C419.23 342.653 420.391 341.371 420.391 341.448Z" fill="#1D1D1B"/>
<path d="M452.179 329.353C454.512 329.968 456.702 331.03 458.624 332.48C458.624 332.966 458.882 334.248 458.238 333.991C457.593 333.735 451.689 331.429 451.457 331.121C451.225 330.814 452.102 329.43 452.179 329.353Z" fill="#1D1D1B"/>
<path d="M451.612 335.375C451.818 335.093 461.924 340.961 461.924 341.858C461.924 342.755 462.827 343.37 461.77 343.216C457.976 341.661 454.312 339.811 450.812 337.681C450.503 337.194 451.328 335.759 451.612 335.375Z" fill="#1D1D1B"/>
<path d="M450.658 340.5C455.049 342.283 459.233 344.534 463.136 347.214C463.291 347.931 463.858 348.726 462.827 348.649C458.448 346.912 454.193 344.883 450.091 342.576C449.859 342.242 450.323 340.654 450.658 340.5Z" fill="#1D1D1B"/>
<path d="M453.081 370.046C455.925 372.026 458.447 374.429 460.558 377.169C460.326 377.81 460.558 378.118 459.836 377.887C456.944 375.816 454.251 373.482 451.792 370.917C451.947 370.507 452.669 370.199 453.081 370.046Z" fill="#1D1D1B"/>
<path d="M449.034 374.915C452.128 377.377 455.017 380.085 457.671 383.012C457.671 383.653 457.335 384.216 457.026 384.14C453.931 381.74 450.97 379.173 448.157 376.452C448.412 375.919 448.705 375.405 449.034 374.915Z" fill="#1D1D1B"/>
<path d="M446.456 380.116C449.616 382.655 452.51 385.506 455.092 388.624C454.912 389.265 455.247 389.649 454.448 389.572C451.253 387.066 448.214 384.37 445.347 381.5C445.665 381 446.037 380.536 446.456 380.116Z" fill="#1D1D1B"/>
<path d="M444.445 384.37C447.599 386.93 450.54 389.741 453.236 392.775C453.236 393.416 452.978 393.826 452.669 393.569C449.222 391.116 445.917 388.473 442.769 385.651C442.915 385.313 443.145 385.018 443.439 384.794C443.732 384.569 444.078 384.424 444.445 384.37Z" fill="#1D1D1B"/>
<path d="M442.846 392.058C445.765 394.036 448.417 396.378 450.735 399.028C450.735 399.591 450.323 399.976 450.091 399.899C447.222 397.93 444.476 395.79 441.867 393.493C441.789 393.006 442.666 392.134 442.846 392.058Z" fill="#1D1D1B"/>
<path d="M441.016 396.696C441.454 396.696 449.395 403.589 448.75 404.23C448.105 404.87 448.441 405.178 447.796 404.947C444.897 402.903 442.196 400.595 439.727 398.054C440.01 397.67 440.577 396.696 441.016 396.696Z" fill="#1D1D1B"/>
<path d="M415.699 390.289C415.931 389.931 419.076 391.084 418.999 391.827C418.921 392.57 418.999 392.698 418.586 392.698C417.219 392.534 415.887 392.153 414.642 391.571C414.642 391.263 415.518 390.546 415.699 390.289Z" fill="#1D1D1B"/>
<path d="M410.439 400.155C410.911 399.952 411.42 399.847 411.934 399.847C412.449 399.847 412.958 399.952 413.43 400.155C414.642 400.719 416.42 402.718 418.019 402.974C419.617 403.23 420.855 402.256 421.242 402.487C421.448 402.601 421.605 402.788 421.681 403.01C421.757 403.233 421.748 403.475 421.654 403.691C421.396 404.101 421.242 404.486 420.597 404.639C419.307 405.018 417.919 404.88 416.73 404.255C415.234 403.256 414.306 402 412.656 402C411.006 402 411.187 402.308 410.877 402C410.568 401.693 409.795 400.693 410.439 400.155Z" fill="#1D1D1B"/>
<path d="M392.031 381.885C392.676 382.295 397.342 386.369 397.188 387.01C397.033 387.65 396.698 388.291 396.208 388.137C394.15 386.847 392.284 385.278 390.665 383.473C390.639 382.858 392.031 381.885 392.031 381.885Z" fill="#1D1D1B"/>
<path d="M387.417 356.977C387.726 356.977 394.661 367.714 394.094 368.278C393.527 368.841 393.217 369.405 392.882 369.072C390.227 365.509 387.783 361.795 385.56 357.951C386.059 357.439 386.709 357.097 387.417 356.977Z" fill="#1D1D1B"/>
<path d="M390.072 355.875C390.072 355.568 391.593 354.901 392.083 355.388C393.553 357.553 394.74 359.895 395.615 362.358C395.383 362.819 395.615 363.563 394.97 363.076C393.108 360.838 391.468 358.426 390.072 355.875Z" fill="#1D1D1B"/>
<path d="M404.252 355.132C404.458 354.85 406.83 352.57 407.552 352.57C408.274 352.57 410.13 352.57 409.898 353.133C409.666 353.697 406.263 358.028 405.618 357.618C404.89 356.969 404.408 356.091 404.252 355.132Z" fill="#1D1D1B"/>
</g>
<defs>
<clipPath id="clip0_406_1695">
<rect width="700" height="700" fill="white"/>
</clipPath>
</defs>
</svg>
