<svg width="31" height="31" viewBox="0 0 31 31" fill="none" xmlns="http://www.w3.org/2000/svg">
<rect width="30.02" height="30.02" rx="15.01" fill="#4380FF"/>
<path d="M15.0018 10.836C12.7316 10.836 10.9005 12.6386 10.9005 14.8732C10.9005 17.1079 12.7316 18.9104 15.0018 18.9104C17.2719 18.9104 19.1031 17.1079 19.1031 14.8732C19.1031 12.6386 17.2719 10.836 15.0018 10.836ZM15.0018 17.498C13.5347 17.498 12.3354 16.3209 12.3354 14.8732C12.3354 13.4256 13.5312 12.2485 15.0018 12.2485C16.4724 12.2485 17.6682 13.4256 17.6682 14.8732C17.6682 16.3209 16.4688 17.498 15.0018 17.498ZM20.2274 10.6709C20.2274 11.1944 19.7991 11.6126 19.2708 11.6126C18.739 11.6126 18.3142 11.1909 18.3142 10.6709C18.3142 10.1509 18.7426 9.72924 19.2708 9.72924C19.7991 9.72924 20.2274 10.1509 20.2274 10.6709ZM22.9438 11.6266C22.8831 10.3652 22.5904 9.24787 21.6516 8.32729C20.7165 7.40671 19.5814 7.11859 18.2999 7.05534C16.9793 6.98155 13.0207 6.98155 11.7001 7.05534C10.4222 7.11507 9.28712 7.40319 8.34835 8.32377C7.40959 9.24435 7.12047 10.3617 7.05622 11.6231C6.98126 12.9232 6.98126 16.8198 7.05622 18.1199C7.1169 19.3813 7.40959 20.4986 8.34835 21.4192C9.28712 22.3398 10.4186 22.6279 11.7001 22.6911C13.0207 22.7649 16.9793 22.7649 18.2999 22.6911C19.5814 22.6314 20.7165 22.3433 21.6516 21.4192C22.5868 20.4986 22.8795 19.3813 22.9438 18.1199C23.0187 16.8198 23.0187 12.9267 22.9438 11.6266ZM21.2376 19.5148C20.9592 20.2035 20.4202 20.734 19.717 21.0116C18.664 21.4227 16.1654 21.3278 15.0018 21.3278C13.8381 21.3278 11.336 21.4192 10.2866 21.0116C9.58695 20.7375 9.04796 20.207 8.76598 19.5148C8.34835 18.4783 8.44473 16.0187 8.44473 14.8732C8.44473 13.7278 8.35192 11.2647 8.76598 10.2317C9.0444 9.54301 9.58338 9.01245 10.2866 8.73487C11.3395 8.32377 13.8381 8.41864 15.0018 8.41864C16.1654 8.41864 18.6676 8.32729 19.717 8.73487C20.4166 9.00894 20.9556 9.5395 21.2376 10.2317C21.6552 11.2682 21.5588 13.7278 21.5588 14.8732C21.5588 16.0187 21.6552 18.4818 21.2376 19.5148Z" fill="#F7F7F8"/>
</svg>
