<svg width="31" height="31" viewBox="0 0 31 31" fill="none" xmlns="http://www.w3.org/2000/svg">
<rect x="0.0200195" width="30.02" height="30.02" rx="15.01" fill="#4380FF"/>
<rect x="5" y="8" width="19.51" height="15.1744" rx="7.58722" fill="#4380FF"/>
<path d="M23.5076 10.6323C22.907 10.8858 22.2698 11.0522 21.6174 11.126C22.297 10.738 22.8187 10.1235 23.0644 9.3914C22.4184 9.75661 21.7117 10.0139 20.9746 10.1522C20.3743 9.54291 19.519 9.16211 18.5724 9.16211C16.7549 9.16211 15.2813 10.5659 15.2813 12.2973C15.2813 12.5431 15.3105 12.7824 15.3665 13.0119C12.6314 12.8811 10.2064 11.6329 8.58322 9.73602C8.3 10.1991 8.13771 10.7377 8.13771 11.3122C8.13771 12.4 8.71876 13.3596 9.60177 13.9219C9.07915 13.9063 8.56803 13.7718 8.11108 13.5297C8.11089 13.5428 8.11089 13.5559 8.11089 13.5691C8.11089 15.0882 9.2453 16.3554 10.7508 16.6435C10.2662 16.769 9.75781 16.7874 9.26459 16.6972C9.68335 17.9428 10.8988 18.8492 12.3388 18.8746C11.2125 19.7155 9.79345 20.2167 8.25163 20.2167C7.98595 20.2167 7.72402 20.2019 7.46655 20.1729C8.92297 21.0625 10.6528 21.5815 12.5113 21.5815C18.5648 21.5815 21.8749 16.804 21.8749 12.6609C21.8749 12.5249 21.8718 12.3897 21.8654 12.2553C22.5097 11.8116 23.0658 11.262 23.5076 10.6323Z" fill="#F7F7F8"/>
</svg>
