<svg width="55" height="10" viewBox="0 0 55 10" fill="none" xmlns="http://www.w3.org/2000/svg">
<path d="M3.19829 5.94877L1.97632 9.62721L5.17462 7.35354L8.3712 9.62721L7.15094 5.94877L10.3475 3.67677H6.39659L5.17462 0L3.95264 3.67677H0L3.19829 5.94877Z" fill="#FF9D00"/>
<path d="M17.4626 3.67677L16.2407 0L15.0187 3.67677H11.0652L14.2643 5.94877L13.0424 9.62721L16.2407 7.35354L19.4389 9.62721L18.217 5.94877L21.4153 3.67677H17.4626Z" fill="#FF9D00"/>
<path d="M28.5287 3.67677L27.3067 0L26.0847 3.67677H22.1312L25.3295 5.94877L24.1075 9.62721L27.3067 7.35354L30.505 9.62721L29.283 5.94877L32.4813 3.67677H28.5287Z" fill="#FF9D00"/>
<path d="M39.5939 3.67677L38.3719 0L37.1499 3.67677H33.1973L36.3956 5.94877L35.1736 9.62721L38.3719 7.35354L41.571 9.62721L40.3491 5.94877L43.5474 3.67677H39.5939Z" fill="#FF9D00"/>
<path d="M50.6599 3.67677L49.4379 0L48.2159 3.67677H44.265L47.4616 5.94877L46.2396 9.62721L49.4379 7.35354L52.6362 9.62721L51.4142 5.94877L54.6134 3.67677H50.6599Z" fill="#FF9D00"/>
</svg>
