<svg width="31" height="31" viewBox="0 0 31 31" fill="none" xmlns="http://www.w3.org/2000/svg">
<rect x="0.0400391" width="30.02" height="30.02" rx="15.01" fill="#4380FF"/>
<rect x="5.04346" y="5.00244" width="16.0129" height="15.0121" rx="7.50604" fill="#4380FF"/>
<path d="M11.6321 20.9977V10.8788H8.20235V20.9977H11.6321ZM9.91768 9.49638C11.1137 9.49638 11.8582 8.71936 11.8582 7.74835C11.8359 6.75545 11.1138 6 9.94038 6C8.76719 6 8 6.75546 8 7.74835C8 8.71941 8.74428 9.49638 9.89529 9.49638H9.91758H9.91768ZM13.5305 20.9977H16.9603V15.3468C16.9603 15.0444 16.9825 14.7423 17.0731 14.5261C17.3211 13.9218 17.8854 13.296 18.8328 13.296C20.0739 13.296 20.5704 14.2239 20.5704 15.5842V20.9976H24V15.1955C24 12.0874 22.3079 10.6412 20.0514 10.6412C18.2011 10.6412 17.3888 11.6554 16.9374 12.3461H16.9603V10.8786H13.5306C13.5756 11.8281 13.5306 20.9975 13.5306 20.9975L13.5305 20.9977Z" fill="#F7F7F8"/>
</svg>
