<svg width="23" height="21" viewBox="0 0 23 21" fill="none" xmlns="http://www.w3.org/2000/svg">
<path d="M20.7 10.35V1.15C20.7 0.845001 20.5788 0.552494 20.3632 0.336827C20.1475 0.12116 19.855 0 19.55 0C19.245 0 18.9525 0.12116 18.7368 0.336827C18.5212 0.552494 18.4 0.845001 18.4 1.15V3.45H4.6V1.15C4.6 0.845001 4.47884 0.552494 4.26317 0.336827C4.04751 0.12116 3.755 0 3.45 0C3.145 0 2.85249 0.12116 2.63683 0.336827C2.42116 0.552494 2.3 0.845001 2.3 1.15V10.35C1.69 10.35 1.10499 10.5923 0.673654 11.0237C0.242321 11.455 0 12.04 0 12.65V19.55C0 19.855 0.12116 20.1475 0.336827 20.3632C0.552494 20.5788 0.845001 20.7 1.15 20.7C1.455 20.7 1.74751 20.5788 1.96317 20.3632C2.17884 20.1475 2.3 19.855 2.3 19.55V17.25H20.7V19.55C20.7 19.855 20.8212 20.1475 21.0368 20.3632C21.2525 20.5788 21.545 20.7 21.85 20.7C22.155 20.7 22.4475 20.5788 22.6632 20.3632C22.8788 20.1475 23 19.855 23 19.55V12.65C23 12.04 22.7577 11.455 22.3263 11.0237C21.895 10.5923 21.31 10.35 20.7 10.35ZM13.8 8.05H17.25C17.555 8.05 17.8475 8.17116 18.0632 8.38683C18.2788 8.6025 18.4 8.895 18.4 9.2V10.35H12.65V9.2C12.65 8.895 12.7712 8.6025 12.9868 8.38683C13.2025 8.17116 13.495 8.05 13.8 8.05ZM4.6 9.2C4.6 8.895 4.72116 8.6025 4.93683 8.38683C5.15249 8.17116 5.445 8.05 5.75 8.05H9.2C9.505 8.05 9.79751 8.17116 10.0132 8.38683C10.2288 8.6025 10.35 8.895 10.35 9.2V10.35H4.6V9.2Z" fill="#4A4A4A"/>
</svg>
