<svg width="35" height="22" viewBox="0 0 35 22" fill="none" xmlns="http://www.w3.org/2000/svg">
<path d="M17.5811 18.7644C19.6886 16.8233 21.0196 14.0502 21.0196 10.9999C21.0196 7.8941 19.6886 5.12107 17.5811 3.2354C15.6954 1.57158 13.2551 0.517822 10.5375 0.517822C4.71416 0.517822 0 5.23199 0 10.9999C0 16.8233 4.71416 21.5375 10.5375 21.5375C13.2551 21.482 15.6954 20.4282 17.5811 18.7644Z" fill="#EBEBEB"/>
<path d="M17.5811 18.7646C19.6886 16.8235 21.0196 14.0504 21.0196 11.0001C21.0196 7.8943 19.6886 5.12126 17.5811 3.2356" fill="#F9F9F9"/>
<path d="M17.5811 18.7646C19.6886 16.8235 21.0196 14.0504 21.0196 11.0001C21.0196 7.8943 19.6886 5.12126 17.5811 3.2356" stroke="#3362AB" stroke-width="0.3097"/>
<path d="M24.6246 0.462646C21.907 0.462646 19.4113 1.5164 17.5811 3.18022C17.1928 3.51298 16.8601 3.90121 16.5273 4.28944H18.6348C18.9121 4.6222 19.1894 5.01043 19.4112 5.39865H15.6954C15.4735 5.73142 15.2517 6.11964 15.0853 6.50787H20.0213C20.1877 6.89609 20.3541 7.22886 20.465 7.61708H14.6416C14.5307 8.00531 14.4198 8.33807 14.3089 8.7263H20.7423C20.9087 9.44729 20.9642 10.1683 20.9642 10.9447C20.9642 12.1094 20.7978 13.2186 20.4096 14.2724H14.5862C14.6971 14.6606 14.8635 15.0488 15.0299 15.3816H19.9659C19.7995 15.7698 19.5776 16.158 19.3558 16.4908H15.6399C15.8618 16.879 16.1391 17.2673 16.4164 17.6H18.5239C18.1911 17.9882 17.8583 18.3765 17.4701 18.7092C19.3558 20.3731 21.7961 21.4268 24.5136 21.4268C30.337 21.4268 34.9957 16.7127 34.9957 10.8893C35.1621 5.17681 30.448 0.462646 24.6246 0.462646Z" fill="#B6B6B6"/>
<path d="M9.20652 13.5513H7.87546L8.65191 9.44719L6.87718 13.5513H5.7125L5.49066 9.50265L4.71419 13.5513H3.54953L4.54782 8.22705H6.59987L6.71078 11.5547L8.15277 8.22705H10.2603L9.20652 13.5513Z" fill="white"/>
<path d="M23.8481 13.5515C23.5154 13.6624 23.1826 13.7179 22.9053 13.7179C22.2398 13.7179 21.8516 13.3851 21.8516 12.775C21.8516 12.6641 21.8515 12.4977 21.907 12.3868L21.9625 11.9431L22.0179 11.6104L22.628 8.28271H23.9036L23.7372 9.28101H24.4027L24.2364 10.3348H23.5708L23.2381 12.165C23.2381 12.2204 23.2381 12.3314 23.2381 12.3314C23.2381 12.5532 23.4045 12.6641 23.6818 12.6641C23.8481 12.6641 23.9591 12.6641 24.0145 12.6087L23.8481 13.5515Z" fill="white"/>
<path d="M27.6195 9.2808C27.5086 9.22534 27.5086 9.22534 27.4531 9.22534C27.3977 9.22534 27.3422 9.22534 27.3422 9.22534C27.2868 9.22534 27.2313 9.22534 27.1758 9.22534C26.7321 9.22534 26.4548 9.39172 26.0112 9.94633L26.1221 9.2808H25.0683L24.2919 13.6067H25.6229C26.0666 10.9446 26.2884 10.5009 26.8985 10.5009C26.954 10.5009 27.0094 10.5009 27.0649 10.5009L27.2313 10.5564L27.6195 9.2808Z" fill="white"/>
<path d="M18.6348 10.6119C18.6348 11.1665 18.9675 11.5547 19.6331 11.832C20.1877 12.0539 20.2431 12.1093 20.2431 12.3312C20.2431 12.6085 20.0213 12.7194 19.4667 12.7194C19.0784 12.7194 18.6902 12.664 18.302 12.553L18.1356 13.5513H18.1911L18.4129 13.6068C18.4684 13.6068 18.6348 13.6622 18.7457 13.6622C19.0785 13.6622 19.3003 13.7177 19.4667 13.7177C20.8532 13.7177 21.5187 13.274 21.5187 12.2757C21.5187 11.6657 21.2414 11.3329 20.5759 11.0556C20.0213 10.8337 19.9658 10.7783 19.9658 10.5564C19.9658 10.3346 20.1877 10.2237 20.6314 10.2237C20.9087 10.2237 21.2414 10.2237 21.5742 10.2791L21.7406 9.28084C21.4078 9.22538 20.9087 9.16992 20.5759 9.16992C19.1339 9.16992 18.6348 9.83545 18.6348 10.6119Z" fill="white"/>
<path d="M12.5341 11.6657C12.3678 11.6657 12.3123 11.6657 12.2568 11.6657C11.5359 11.6657 11.1476 11.8875 11.1476 12.3312C11.1476 12.6085 11.314 12.7749 11.5913 12.7749C12.0905 12.7194 12.4787 12.2757 12.5341 11.6657ZM13.477 13.5513H12.3678L12.4232 13.1076C12.0905 13.4404 11.6468 13.6068 11.0367 13.6068C10.3157 13.6068 9.87204 13.1076 9.87204 12.4421C9.87204 11.3883 10.704 10.7783 12.1459 10.7783C12.3123 10.7783 12.4787 10.7783 12.7005 10.8337C12.756 10.6674 12.756 10.6119 12.756 10.5564C12.756 10.2791 12.5341 10.1682 11.9241 10.1682C11.5359 10.1682 11.1476 10.2237 10.8703 10.2791L10.704 10.3346L10.593 10.3901L10.7594 9.39176C11.4249 9.22538 11.8132 9.16992 12.3123 9.16992C13.4215 9.16992 14.0316 9.61361 14.0316 10.4455C14.0316 10.6674 14.0316 10.8337 13.9207 11.2774L13.6434 12.8303L13.5879 13.1076L13.5325 13.3295V13.4959L13.477 13.5513Z" fill="white"/>
<path d="M17.0819 10.8893C17.0819 10.7783 17.0819 10.7229 17.0819 10.6674C17.0819 10.3346 16.8601 10.1128 16.4718 10.1128C16.0281 10.1128 15.7508 10.3901 15.6399 10.8893H17.0819ZM17.7474 13.4959C17.3037 13.6068 16.8601 13.6623 16.4164 13.6623C14.9744 13.6623 14.1979 12.9968 14.1979 11.7212C14.1979 10.2237 15.1408 9.1145 16.4718 9.1145C17.5256 9.1145 18.2466 9.72457 18.2466 10.6674C18.2466 11.0002 18.1911 11.2775 18.0802 11.7212H15.4735C15.4735 11.7766 15.4735 11.8321 15.4735 11.8321C15.4735 12.3312 15.8618 12.6085 16.6382 12.6085C17.0819 12.6085 17.5256 12.4976 18.0247 12.3312L17.7474 13.4959Z" fill="white"/>
<path d="M30.337 11.0556C30.337 10.6119 30.1707 10.1682 29.6161 10.1682C28.9505 10.1682 28.5623 10.9447 28.5623 11.6657C28.5623 12.2757 28.8396 12.664 29.3388 12.664C29.6161 12.664 30.2261 12.2757 30.337 11.6102C30.337 11.4438 30.337 11.222 30.337 11.0556ZM31.7236 11.6102C31.5017 13.0522 30.5034 13.7177 29.1724 13.7177C27.6749 13.7177 27.1203 12.8303 27.1203 11.7211C27.1203 10.1682 28.1186 9.16992 29.6715 9.16992C31.058 9.16992 31.7236 10.0018 31.7236 11.111C31.779 11.3329 31.779 11.3329 31.7236 11.6102Z" fill="white"/>
</svg>
