<svg width="36" height="22" viewBox="0 0 36 22" fill="none" xmlns="http://www.w3.org/2000/svg">
<path d="M35.1851 11C35.1851 16.7615 30.5004 21.5 24.6851 21.5C18.9235 21.5 14.1851 16.7615 14.1851 11C14.1851 5.23846 18.8697 0.5 24.6312 0.5C30.5004 0.5 35.1851 5.23846 35.1851 11Z" fill="#B6B6B6"/>
<path d="M21.1313 11.0538C21.1313 10.3 21.0236 9.54615 20.9159 8.84615H14.4543C14.5082 8.46923 14.6159 8.14615 14.7236 7.71538H20.4851C20.3774 7.33846 20.2159 6.96154 20.0543 6.58462H15.1543C15.3159 6.20769 15.5313 5.88462 15.7467 5.45385H19.462C19.2467 5.07692 18.9774 4.7 18.6543 4.32308H16.6082C16.9313 3.94615 17.2543 3.62308 17.6851 3.24615C15.8543 1.52308 13.3774 0.5 10.6313 0.5C4.92358 0.661538 0.18512 5.23846 0.18512 11C0.18512 16.7615 4.86973 21.5 10.6851 21.5C13.4313 21.5 15.8543 20.4231 17.739 18.7538C18.1159 18.4308 18.439 18.0538 18.8159 17.6231H16.662C16.3928 17.3 16.1236 16.9231 15.9082 16.5462H19.5697C19.7851 16.2231 20.0005 15.8462 20.162 15.4154H15.262C15.1005 15.0923 14.939 14.7154 14.8313 14.2846H20.5928C20.9159 13.3154 21.1313 12.2385 21.1313 11.0538Z" fill="#EBEBEB"/>
<path d="M14.4005 13.6922L14.5621 12.723C14.5082 12.723 14.4005 12.7769 14.2928 12.7769C13.9159 12.7769 13.8621 12.5615 13.9159 12.4538L14.239 10.5153H14.8313L14.9928 9.43839H14.4544L14.5621 8.79224H13.4313C13.4313 8.79224 12.7852 12.4538 12.7852 12.8845C12.7852 13.5307 13.1621 13.8538 13.7005 13.8538C14.0236 13.8538 14.2928 13.7461 14.4005 13.6922Z" fill="white"/>
<path d="M14.7774 11.9154C14.7774 13.4769 15.8543 13.8539 16.7159 13.8539C17.5236 13.8539 17.9005 13.6923 17.9005 13.6923L18.1159 12.6154C18.1159 12.6154 17.5236 12.8846 16.9313 12.8846C15.6928 12.8846 15.9082 11.9693 15.9082 11.9693H18.1697C18.1697 11.9693 18.3313 11.2693 18.3313 10.9462C18.3313 10.2462 17.9543 9.33079 16.7159 9.33079C15.6389 9.27695 14.7774 10.5154 14.7774 11.9154ZM16.7159 10.3C17.3082 10.3 17.2005 11 17.2005 11.0539H15.962C16.0159 11 16.1236 10.3 16.7159 10.3Z" fill="white"/>
<path d="M23.7698 13.6924L23.9852 12.4539C23.9852 12.4539 23.4467 12.7231 23.0159 12.7231C22.2621 12.7231 21.8852 12.1308 21.8852 11.4308C21.8852 10.0847 22.5313 9.38468 23.339 9.38468C23.8775 9.38468 24.3621 9.70775 24.3621 9.70775L24.5236 8.52314C24.5236 8.52314 23.8775 8.25391 23.2313 8.25391C21.939 8.25391 20.7006 9.38468 20.7006 11.4847C20.7006 12.8847 21.3467 13.8001 22.6929 13.8001C23.1775 13.8539 23.7698 13.6924 23.7698 13.6924Z" fill="white"/>
<path d="M8.31585 9.27686C7.562 9.27686 6.9697 9.49224 6.9697 9.49224L6.80816 10.4615C6.80816 10.4615 7.29277 10.2461 8.04662 10.2461C8.42354 10.2461 8.74662 10.2999 8.74662 10.623C8.74662 10.8384 8.69277 10.8922 8.69277 10.8922H8.20816C7.23893 10.8922 6.21585 11.2692 6.21585 12.5615C6.21585 13.5845 6.862 13.7999 7.29277 13.7999C8.04662 13.7999 8.42354 13.3153 8.47739 13.3153L8.42354 13.7461H9.33893L9.7697 10.6769C9.7697 9.3307 8.69277 9.27686 8.31585 9.27686ZM8.53124 11.7538C8.53124 11.9153 8.42354 12.8307 7.77739 12.8307C7.45431 12.8307 7.34662 12.5615 7.34662 12.3999C7.34662 12.1307 7.50816 11.7538 8.3697 11.7538C8.47739 11.7538 8.53124 11.7538 8.53124 11.7538Z" fill="white"/>
<path d="M10.8466 13.8001C11.1159 13.8001 12.5159 13.8539 12.5159 12.3462C12.5159 10.9462 11.1697 11.2155 11.1697 10.677C11.1697 10.4078 11.3851 10.3001 11.762 10.3001C11.9236 10.3001 12.5159 10.3539 12.5159 10.3539L12.6774 9.33084C12.6774 9.33084 12.3005 9.22314 11.6005 9.22314C10.7928 9.22314 9.93126 9.54622 9.93126 10.677C9.93126 11.9693 11.3313 11.8616 11.3313 12.3462C11.3313 12.6693 10.9543 12.7231 10.6851 12.7231C10.2005 12.7231 9.66203 12.5616 9.66203 12.5616L9.50049 13.5847C9.60818 13.6924 9.93126 13.8001 10.8466 13.8001Z" fill="white"/>
<path d="M33.0312 8.41528L32.8158 9.92298C32.8158 9.92298 32.3851 9.38451 31.7389 9.38451C30.7158 9.38451 29.8543 10.623 29.8543 12.0768C29.8543 12.9922 30.2851 13.9076 31.2543 13.9076C31.9005 13.9076 32.3312 13.4768 32.3312 13.4768L32.2774 13.8537H33.4082L34.2158 8.52298L33.0312 8.41528ZM32.4928 11.323C32.4928 11.9153 32.2235 12.723 31.5774 12.723C31.2005 12.723 30.9851 12.3999 30.9851 11.8076C30.9851 10.8922 31.362 10.3537 31.9005 10.3537C32.2774 10.4076 32.4928 10.6768 32.4928 11.323Z" fill="white"/>
<path d="M2.23128 13.7461L2.87743 9.76144L2.98513 13.7461H3.73897L5.19282 9.76144L4.60051 13.7461H5.78513L6.70051 8.41528H4.86974L3.73897 11.6999L3.68513 8.41528H2.06974L1.15436 13.7461H2.23128Z" fill="white"/>
<path d="M19.462 13.7461C19.7851 11.9153 19.839 10.4076 20.6466 10.6768C20.7543 9.97683 20.9159 9.65375 21.0236 9.38452H20.8082C20.3236 9.38452 19.8928 10.0307 19.8928 10.0307L20.0005 9.43837H18.9236L18.2236 13.7461H19.462Z" fill="white"/>
<path d="M26.3543 9.27686C25.6005 9.27686 25.0082 9.49224 25.0082 9.49224L24.8466 10.4615C24.8466 10.4615 25.3313 10.2461 26.0851 10.2461C26.462 10.2461 26.7851 10.2999 26.7851 10.623C26.7851 10.8384 26.7313 10.8922 26.7313 10.8922H26.2466C25.2774 10.8922 24.2543 11.2692 24.2543 12.5615C24.2543 13.5845 24.9005 13.7999 25.3313 13.7999C26.0851 13.7999 26.462 13.3153 26.5159 13.3153L26.462 13.7461H27.4851L27.9159 10.6769C27.9159 9.3307 26.7313 9.27686 26.3543 9.27686ZM26.6236 11.7538C26.6236 11.9153 26.5159 12.8307 25.8697 12.8307C25.5466 12.8307 25.4389 12.5615 25.4389 12.3999C25.4389 12.1307 25.6005 11.7538 26.462 11.7538C26.5697 11.7538 26.5697 11.7538 26.6236 11.7538Z" fill="white"/>
<path d="M28.7774 13.7461C29.1005 11.9153 29.1543 10.4076 29.962 10.6768C30.0697 9.97683 30.2312 9.65375 30.3389 9.38452H30.1236C29.6389 9.38452 29.2082 10.0307 29.2082 10.0307L29.3159 9.43837H28.2389L27.5389 13.7461H28.7774Z" fill="white"/>
</svg>
