<svg width="30" height="17" viewBox="0 0 30 17" fill="none" xmlns="http://www.w3.org/2000/svg">
<path d="M5.91796 11.0983C4.17843 11.0983 2.76123 12.3235 2.76123 13.831C2.76123 15.3369 4.17849 16.5629 5.91796 16.5629C7.65743 16.5629 9.07288 15.3368 9.07288 13.831C9.07288 12.3236 7.65749 11.0983 5.91796 11.0983ZM5.91796 15.0896C5.11505 15.0896 4.46408 14.5253 4.46408 13.831C4.46408 13.1351 5.115 12.5724 5.91796 12.5724C6.71999 12.5724 7.37185 13.1351 7.37185 13.831C7.37185 14.5253 6.71999 15.0896 5.91796 15.0896Z" fill="#4A4A4A"/>
<path d="M23.713 11.0983C21.9726 11.0983 20.5573 12.3235 20.5573 13.831C20.5573 15.3369 21.9726 16.5629 23.713 16.5629C25.4544 16.5629 26.8688 15.3368 26.8688 13.831C26.8689 12.3236 25.4544 11.0983 23.713 11.0983ZM23.713 15.0896C22.9101 15.0896 22.2601 14.5253 22.2601 13.831C22.2601 13.1351 22.9101 12.5724 23.713 12.5724C24.5169 12.5724 25.1678 13.1351 25.1678 13.831C25.1678 14.5253 24.5169 15.0896 23.713 15.0896Z" fill="#4A4A4A"/>
<path d="M5.91797 13.3983C5.6424 13.3983 5.41992 13.5917 5.41992 13.831C5.41992 14.0688 5.6424 14.2622 5.91797 14.2622C6.19265 14.2622 6.41601 14.0688 6.41601 13.831C6.41601 13.5917 6.19265 13.3983 5.91797 13.3983Z" fill="#4A4A4A"/>
<path d="M23.7131 13.3983C23.4375 13.3983 23.2141 13.5917 23.2141 13.831C23.2141 14.0688 23.4375 14.2622 23.7131 14.2622C23.9887 14.2622 24.2121 14.0688 24.2121 13.831C24.2121 13.5917 23.9887 13.3983 23.7131 13.3983Z" fill="#4A4A4A"/>
<path d="M29.2382 7.39144L25.393 2.05193C24.4738 0.775924 22.8588 0 21.1212 0H3.3563C1.5024 0 0 1.30061 0 2.90476V12.9306C0 13.5734 0.602401 14.0949 1.34402 14.0949H2.18173C2.17347 14.007 2.16802 13.9198 2.16802 13.831C2.16802 12.0414 3.85077 10.5847 5.91802 10.5847C7.98526 10.5847 9.66707 12.0414 9.66707 13.831C9.66707 13.9198 9.66069 14.007 9.65336 14.0949H16.9574H19.9787C19.9695 14.007 19.964 13.9198 19.964 13.831C19.964 12.0414 21.6468 10.5847 23.7131 10.5847C25.7803 10.5847 27.4621 12.0414 27.4621 13.831C27.4621 13.9198 27.4576 14.007 27.4493 14.0949H28.6542C29.3976 14.0949 30 13.5734 30 12.9306V9.69699C29.9999 8.88145 29.7363 8.08336 29.2382 7.39144ZM7.10266 5.70725H1.49595V3.20753C1.49595 2.2739 2.3721 1.51462 3.4497 1.51462H7.10266V5.70725ZM15.2783 5.70725H9.08201V1.51462H15.2783V5.70725ZM25.3655 5.33316C25.2172 5.56381 24.937 5.70725 24.6322 5.70725H17.7191V1.51462H21.2018C22.4066 1.51462 23.5052 2.04245 24.1425 2.92697L25.3446 4.59609C25.5056 4.8204 25.5139 5.10176 25.3655 5.33316Z" fill="#4A4A4A"/>
</svg>
