<svg width="58" height="14" viewBox="0 0 58 14" fill="none" xmlns="http://www.w3.org/2000/svg">
<path d="M21.7778 6.00007C21.6297 7.11118 20.7408 7.11118 19.926 7.11118H19.4815L19.8519 4.96303C19.8519 4.81489 20 4.74081 20.1482 4.74081H20.3704C20.963 4.74081 21.4815 4.74081 21.7778 5.03711C21.7778 5.33341 21.7778 5.6297 21.7778 6.00007ZM21.4074 3.03711H18.2223C18 3.03711 17.8519 3.18526 17.7778 3.40748L16.5186 11.5556C16.5186 11.7038 16.5926 11.8519 16.8149 11.8519H18.2963C18.5186 11.8519 18.6667 11.7038 18.7408 11.4816L19.1111 9.25933C19.1111 9.03711 19.3334 8.88896 19.5556 8.88896H20.5926C22.6667 8.88896 23.8519 7.85192 24.2223 5.85192C24.3704 4.96303 24.2223 4.29637 23.8519 3.77785C23.2593 3.33341 22.4445 3.03711 21.4074 3.03711Z" fill="#EBEBEB"/>
<path d="M28.7407 8.96292C28.5926 9.85181 27.9259 10.4444 27.0371 10.4444C26.5926 10.4444 26.2222 10.2963 26 9.99996C25.7778 9.70366 25.7037 9.33329 25.7778 8.96292C25.9259 8.07403 26.5926 7.48144 27.4815 7.48144C27.9259 7.48144 28.2963 7.62958 28.5185 7.92588C28.6667 8.1481 28.8148 8.51847 28.7407 8.96292ZM30.8148 5.99996H29.3334C29.1852 5.99996 29.1111 6.07403 29.037 6.22218L28.963 6.66662L28.8889 6.51847C28.5926 6.07403 27.8519 5.85181 27.1111 5.85181C25.4074 5.85181 24 7.11107 23.7037 8.88885C23.5556 9.77773 23.7778 10.5925 24.2963 11.1851C24.7407 11.7037 25.4074 11.9259 26.2222 11.9259C27.5556 11.9259 28.2963 11.037 28.2963 11.037L28.2222 11.4814C28.2222 11.6296 28.2963 11.7777 28.5185 11.7777H29.8519C30.0741 11.7777 30.2222 11.6296 30.2963 11.4074L31.1111 6.22218C31.1111 6.1481 31.0371 5.99996 30.8148 5.99996Z" fill="#EBEBEB"/>
<path d="M38.8889 6H37.3333C37.1852 6 37.037 6.07407 36.9629 6.22222L34.8889 9.33333L34 6.37037C33.9259 6.14815 33.7777 6.07407 33.5555 6.07407H32.074C31.9259 6.07407 31.7778 6.22222 31.8518 6.44444L33.5555 11.3333L32 13.5556C31.8518 13.7037 32 14 32.2222 14H33.7778C33.9259 14 34.0741 13.9259 34.1481 13.7778L39.1852 6.44444C39.2592 6.22222 39.1111 6 38.8889 6Z" fill="#EBEBEB"/>
<path d="M44.2963 6.00007C44.1481 7.11118 43.2592 7.11118 42.4444 7.11118H42L42.3703 4.96303C42.3703 4.81489 42.5185 4.74081 42.6666 4.74081H42.8888C43.4814 4.74081 44 4.74081 44.2963 5.03711C44.3703 5.33341 44.3703 5.6297 44.2963 6.00007ZM43.9259 3.03711H40.7407C40.5185 3.03711 40.3703 3.18526 40.2963 3.40748L39.037 11.5556C39.037 11.7038 39.1111 11.8519 39.3333 11.8519H40.9629C41.1111 11.8519 41.2592 11.7779 41.2592 11.5556L41.6296 9.25933C41.6296 9.03711 41.8518 8.88896 42.074 8.88896H43.1111C45.1851 8.88896 46.3703 7.85192 46.7407 5.85192C46.8889 4.96303 46.7407 4.29637 46.3703 3.77785C45.8518 3.33341 45.037 3.03711 43.9259 3.03711Z" fill="#EBEBEB"/>
<path d="M51.3333 8.96292C51.1852 9.85181 50.5185 10.4444 49.6296 10.4444C49.1852 10.4444 48.8148 10.2963 48.5926 9.99996C48.3704 9.70366 48.2963 9.33329 48.3704 8.96292C48.5185 8.07403 49.1852 7.48144 50.0741 7.48144C50.5185 7.48144 50.8889 7.62958 51.1111 7.92588C51.2593 8.1481 51.4074 8.51847 51.3333 8.96292ZM53.4074 5.99996H51.9259C51.7778 5.99996 51.7037 6.07403 51.6296 6.22218L51.5556 6.66662L51.4815 6.51847C51.1852 6.07403 50.4445 5.85181 49.7037 5.85181C48 5.85181 46.5926 7.11107 46.2963 8.88885C46.1482 9.77773 46.3704 10.5925 46.8889 11.1851C47.3333 11.7037 48 11.9259 48.8148 11.9259C50.1482 11.9259 50.8889 11.037 50.8889 11.037L50.8148 11.4814C50.8148 11.6296 50.8889 11.7777 51.1111 11.7777H52.4444C52.6667 11.7777 52.8148 11.6296 52.8889 11.4074L53.7037 6.22218C53.7037 6.1481 53.5556 5.99996 53.4074 5.99996Z" fill="#EBEBEB"/>
<path d="M55.1851 3.25933L53.8517 11.5556C53.8517 11.7038 53.9258 11.8519 54.1481 11.8519H55.4814C55.7036 11.8519 55.8518 11.7038 55.9258 11.4816L57.1851 3.33341C57.1851 3.18526 57.111 3.03711 56.8888 3.03711H55.4073C55.3332 3.03711 55.2592 3.18526 55.1851 3.25933Z" fill="#EBEBEB"/>
<path d="M3.33335 13.4073L3.55557 11.8517H3.03705H0.444458L2.22224 0.518409C2.22224 0.518409 2.22224 0.444336 2.29631 0.444336H2.37039H6.74075C8.14816 0.444336 9.1852 0.740633 9.70372 1.33323C9.92594 1.62952 10.0741 1.92582 10.1482 2.22211C10.2222 2.59249 10.2222 2.96285 10.1482 3.48137V3.77767L10.3704 3.92582C10.5926 3.99989 10.7408 4.14804 10.8889 4.29619C11.1111 4.51841 11.2593 4.81471 11.2593 5.18508C11.3334 5.55545 11.3333 5.99989 11.1852 6.51841C11.0371 7.111 10.8889 7.55545 10.6667 7.99989C10.4445 8.37026 10.1482 8.66656 9.85186 8.96285C9.55557 9.18508 9.11112 9.33322 8.74075 9.48137C8.29631 9.55545 7.85187 9.62952 7.33335 9.62952H6.96298C6.74076 9.62952 6.51854 9.70359 6.29632 9.85174C6.14817 9.99989 6.00002 10.2221 5.92595 10.4443V10.5925L5.4815 13.3332V13.4073V13.4814C5.4815 13.4814 5.48149 13.4814 5.40742 13.4814H3.33335V13.4073Z" fill="#263577"/>
<path d="M10.6667 3.48145C10.6667 3.55552 10.6667 3.6296 10.5926 3.70367C9.99999 6.66663 8.07408 7.62959 5.55556 7.62959H4.29629C3.99999 7.62959 3.7037 7.85182 3.7037 8.14811L3.03703 12.2963L2.88889 13.4814C2.88889 13.7037 3.03703 13.8518 3.18518 13.8518H5.48148C5.77777 13.8518 5.99999 13.6296 5.99999 13.4074V13.2592L6.44444 10.5926V10.4444C6.51852 10.1481 6.74074 9.99997 6.96296 9.99997H7.33333C9.55555 9.99997 11.2593 9.11108 11.7037 6.51848C11.9259 5.40737 11.7778 4.51848 11.2593 3.92589C11.1111 3.77774 10.8889 3.62959 10.6667 3.48145Z" fill="#B6B6B6"/>
<path d="M10.074 3.25933C9.99993 3.25933 9.92586 3.18526 9.77772 3.18526C9.70364 3.18526 9.55549 3.11118 9.48141 3.11118C9.11104 3.03711 8.74067 3.03711 8.3703 3.03711H4.9629C4.88883 3.03711 4.81475 3.03711 4.74068 3.11118C4.59253 3.18526 4.44438 3.3334 4.44438 3.48155L3.70364 8.07415V8.22229C3.77772 7.926 3.99993 7.70378 4.29623 7.70378H5.5555C8.07401 7.70378 9.99993 6.66674 10.5925 3.77785C10.5925 3.70378 10.5925 3.6297 10.6666 3.55563C10.5185 3.48155 10.3703 3.40748 10.2222 3.33341C10.1481 3.25933 10.074 3.25933 10.074 3.25933Z" fill="#F9F9F9"/>
<path d="M4.44444 3.48148C4.44444 3.33333 4.59259 3.18518 4.74074 3.11111C4.81481 3.11111 4.88889 3.03704 4.96296 3.03704H8.37036C8.74073 3.03704 9.18518 3.03703 9.48147 3.11111C9.55555 3.11111 9.7037 3.11111 9.77778 3.18518C9.85185 3.18518 9.92592 3.25926 10.0741 3.25926C10.1481 3.25926 10.1481 3.25926 10.2222 3.33333C10.3704 3.40741 10.5185 3.48148 10.6667 3.55556C10.8148 2.44444 10.6667 1.7037 10.0741 1.03704C9.4074 0.296295 8.22222 0 6.74073 0H2.37037C2.07407 0 1.77777 0.22222 1.77777 0.518516L0 11.9259C0 12.1481 0.148148 12.3704 0.37037 12.3704H3.03703L3.7037 8.07408L4.44444 3.48148Z" fill="#EBEBEB"/>
</svg>
