<svg width="24" height="21" viewBox="0 0 24 26" fill="none" xmlns="http://www.w3.org/2000/svg">
<mask id="path-1-inside-1_62_221" fill="white">
<path d="M12.0362 19.7296C11.8912 19.411 11.5908 19.1785 11.2274 19.1372C10.9196 19.102 10.6182 19.0361 10.3316 18.941C10.2032 18.8978 10.0826 18.8506 9.97094 18.8001L10.1564 18.2945C10.2874 18.3529 10.4223 18.4064 10.5605 18.4548L10.5662 18.4568L10.572 18.4587C11.0154 18.6052 11.4517 18.6795 11.8685 18.6795C12.287 18.6795 12.5904 18.6234 12.8235 18.5031L12.8374 18.4959L12.8511 18.488C13.2041 18.2854 13.4067 17.9372 13.4067 17.5324C13.4067 17.0832 13.1644 16.7104 12.7418 16.5089C12.5292 16.4055 12.2272 16.3067 11.7923 16.1986C11.3462 16.0858 10.9714 15.9661 10.6808 15.8435C10.4683 15.7474 10.284 15.594 10.1179 15.3747C9.9749 15.179 9.90253 14.8846 9.90253 14.4995C9.90253 14.0348 10.0334 13.6512 10.3026 13.3269C10.5423 13.0426 10.8826 12.8496 11.3394 12.7413C11.6783 12.661 11.9426 12.4191 12.0614 12.1068C12.1957 12.4234 12.4816 12.6588 12.8373 12.7155C13.1344 12.7628 13.4072 12.8383 13.6524 12.9404L13.4817 13.4359C13.0187 13.2499 12.5629 13.156 12.1221 13.156C10.658 13.156 10.5839 14.166 10.5839 14.3685C10.5839 14.8074 10.821 15.1754 11.2342 15.3783L11.2458 15.3841L11.2575 15.3893C11.4663 15.4825 11.7625 15.5723 12.19 15.6719C12.632 15.7719 13.0006 15.8863 13.2903 16.0131L13.2963 16.0158L13.3023 16.0183C13.5173 16.1078 13.7018 16.2572 13.8662 16.4752L13.8688 16.4786L13.8714 16.4821C14.0152 16.6679 14.0881 16.9552 14.0881 17.3361C14.0881 17.7757 13.9608 18.1478 13.6989 18.4738C13.4716 18.7566 13.1545 18.9523 12.7289 19.0721C12.4003 19.1647 12.1453 19.416 12.0362 19.7296Z"/>
</mask>
<path d="M12.0362 19.7296C11.8912 19.411 11.5908 19.1785 11.2274 19.1372C10.9196 19.102 10.6182 19.0361 10.3316 18.941C10.2032 18.8978 10.0826 18.8506 9.97094 18.8001L10.1564 18.2945C10.2874 18.3529 10.4223 18.4064 10.5605 18.4548L10.5662 18.4568L10.572 18.4587C11.0154 18.6052 11.4517 18.6795 11.8685 18.6795C12.287 18.6795 12.5904 18.6234 12.8235 18.5031L12.8374 18.4959L12.8511 18.488C13.2041 18.2854 13.4067 17.9372 13.4067 17.5324C13.4067 17.0832 13.1644 16.7104 12.7418 16.5089C12.5292 16.4055 12.2272 16.3067 11.7923 16.1986C11.3462 16.0858 10.9714 15.9661 10.6808 15.8435C10.4683 15.7474 10.284 15.594 10.1179 15.3747C9.9749 15.179 9.90253 14.8846 9.90253 14.4995C9.90253 14.0348 10.0334 13.6512 10.3026 13.3269C10.5423 13.0426 10.8826 12.8496 11.3394 12.7413C11.6783 12.661 11.9426 12.4191 12.0614 12.1068C12.1957 12.4234 12.4816 12.6588 12.8373 12.7155C13.1344 12.7628 13.4072 12.8383 13.6524 12.9404L13.4817 13.4359C13.0187 13.2499 12.5629 13.156 12.1221 13.156C10.658 13.156 10.5839 14.166 10.5839 14.3685C10.5839 14.8074 10.821 15.1754 11.2342 15.3783L11.2458 15.3841L11.2575 15.3893C11.4663 15.4825 11.7625 15.5723 12.19 15.6719C12.632 15.7719 13.0006 15.8863 13.2903 16.0131L13.2963 16.0158L13.3023 16.0183C13.5173 16.1078 13.7018 16.2572 13.8662 16.4752L13.8688 16.4786L13.8714 16.4821C14.0152 16.6679 14.0881 16.9552 14.0881 17.3361C14.0881 17.7757 13.9608 18.1478 13.6989 18.4738C13.4716 18.7566 13.1545 18.9523 12.7289 19.0721C12.4003 19.1647 12.1453 19.416 12.0362 19.7296Z" fill="black"/>
<path d="M12.0362 19.7296L9.94285 20.6825L12.3215 25.9083L14.2084 20.4855L12.0362 19.7296ZM11.2274 19.1372L10.9663 21.4223L10.9676 21.4225L11.2274 19.1372ZM10.3316 18.941L9.59834 21.121L9.60733 21.124L10.3316 18.941ZM9.97094 18.8001L7.81166 18.0079L7.07573 20.014L9.0223 20.8953L9.97094 18.8001ZM10.1564 18.2945L11.0938 16.1942L8.8452 15.1906L7.99713 17.5024L10.1564 18.2945ZM10.5605 18.4548L11.3375 16.29L11.3288 16.2869L11.3202 16.2839L10.5605 18.4548ZM10.5662 18.4568L9.78919 20.6216L9.82232 20.6335L9.85578 20.6444L10.5662 18.4568ZM10.572 18.4587L11.2937 16.2749L11.2824 16.2712L10.572 18.4587ZM12.8235 18.5031L11.7691 16.459L11.7688 16.4592L12.8235 18.5031ZM12.8374 18.4959L13.8918 20.54L13.9427 20.5138L13.9923 20.485L12.8374 18.4959ZM12.8511 18.488L11.7063 16.4931L11.6962 16.499L12.8511 18.488ZM12.7418 16.5089L11.7355 18.5771L11.7438 18.5812L11.7522 18.5852L12.7418 16.5089ZM11.7923 16.1986L11.2284 18.4284L11.2374 18.4307L11.7923 16.1986ZM10.6808 15.8435L9.73271 17.939L9.75957 17.9512L9.78674 17.9626L10.6808 15.8435ZM10.1179 15.3747L8.26068 16.7314L8.27246 16.7476L8.28452 16.7635L10.1179 15.3747ZM10.3026 13.3269L8.54437 11.8441L8.53864 11.8509L8.53297 11.8577L10.3026 13.3269ZM11.3394 12.7413L10.8092 10.5032L10.809 10.5033L11.3394 12.7413ZM12.0614 12.1068L14.1787 11.2083L11.9448 5.94414L9.91168 11.289L12.0614 12.1068ZM12.8373 12.7155L12.4753 14.9868L12.4755 14.9869L12.8373 12.7155ZM13.6524 12.9404L15.827 13.6895L16.5305 11.6473L14.5365 10.8171L13.6524 12.9404ZM13.4817 13.4359L12.6249 15.5703L14.8688 16.4711L15.6563 14.1849L13.4817 13.4359ZM11.2342 15.3783L12.2525 13.316L12.2479 13.3138L11.2342 15.3783ZM11.2458 15.3841L10.2276 17.4464L10.2645 17.4646L10.302 17.4815L11.2458 15.3841ZM11.2575 15.3893L10.3137 17.4868L10.3201 17.4896L11.2575 15.3893ZM12.19 15.6719L11.668 17.9119L11.6755 17.9137L11.6829 17.9153L12.19 15.6719ZM13.2903 16.0131L14.2151 13.9073L14.2131 13.9064L13.2903 16.0131ZM13.2963 16.0158L12.3714 18.1216L12.3934 18.1313L12.4156 18.1405L13.2963 16.0158ZM13.3023 16.0183L14.1861 13.8949L14.183 13.8936L13.3023 16.0183ZM13.8662 16.4752L12.0297 17.86L12.0422 17.8765L12.055 17.8929L13.8662 16.4752ZM13.8688 16.4786L15.7088 15.0986L15.6946 15.0796L15.6799 15.0609L13.8688 16.4786ZM13.8714 16.4821L12.0314 17.8621L12.0418 17.8759L12.0523 17.8895L13.8714 16.4821ZM13.6989 18.4738L15.4917 19.9146L15.4917 19.9145L13.6989 18.4738ZM12.7289 19.0721L12.1055 16.8582L12.1051 16.8583L12.7289 19.0721ZM14.1295 18.7768C13.6661 17.7587 12.6918 16.9888 11.4871 16.8519L10.9676 21.4225C10.4898 21.3682 10.1162 21.0633 9.94285 20.6825L14.1295 18.7768ZM11.4884 16.852C11.3335 16.8343 11.1876 16.8017 11.0559 16.758L9.60733 21.124C10.0488 21.2705 10.5056 21.3697 10.9663 21.4223L11.4884 16.852ZM11.0649 16.761C11.0031 16.7402 10.9549 16.7208 10.9196 16.7048L9.0223 20.8953C9.21028 20.9804 9.40325 21.0554 9.59835 21.121L11.0649 16.761ZM12.1302 19.5922L12.3157 19.0866L7.99713 17.5024L7.81166 18.0079L12.1302 19.5922ZM9.21903 20.3948C9.41002 20.48 9.60432 20.5569 9.80077 20.6257L11.3202 16.2839C11.2403 16.2559 11.1648 16.2259 11.0938 16.1942L9.21903 20.3948ZM9.78348 20.6196L9.78919 20.6216L11.3432 16.292L11.3375 16.29L9.78348 20.6196ZM9.85578 20.6444L9.86164 20.6463L11.2824 16.2712L11.2766 16.2693L9.85578 20.6444ZM9.85035 20.6426C10.499 20.8569 11.179 20.9795 11.8685 20.9795V16.3795C11.7243 16.3795 11.5318 16.3535 11.2937 16.2749L9.85035 20.6426ZM11.8685 20.9795C12.4589 20.9795 13.1812 20.9067 13.8782 20.547L11.7688 16.4592C11.8877 16.3979 11.9755 16.3788 11.9977 16.3747C12.008 16.3728 12.0038 16.3742 11.9815 16.3759C11.9591 16.3777 11.9224 16.3795 11.8685 16.3795V20.9795ZM13.8779 20.5472L13.8918 20.54L11.7831 16.4518L11.7691 16.459L13.8779 20.5472ZM13.9923 20.485L14.0059 20.4771L11.6962 16.499L11.6826 16.5069L13.9923 20.485ZM13.9958 20.4829C15.0578 19.8735 15.7067 18.7676 15.7067 17.5324H11.1067C11.1067 17.3445 11.1558 17.1314 11.2731 16.9297C11.3902 16.7284 11.5491 16.5834 11.7063 16.4932L13.9958 20.4829ZM15.7067 17.5324C15.7067 16.149 14.9109 14.9949 13.7313 14.4327L11.7522 18.5852C11.6154 18.52 11.442 18.3931 11.3041 18.1809C11.1643 17.9658 11.1067 17.7324 11.1067 17.5324H15.7067ZM13.7481 14.4407C13.3153 14.2302 12.8263 14.0856 12.3471 13.9665L11.2374 18.4307C11.4199 18.476 11.5477 18.5129 11.6358 18.5417C11.7259 18.5711 11.7507 18.5845 11.7355 18.5771L13.7481 14.4407ZM12.3561 13.9688C11.9763 13.8728 11.7218 13.7864 11.5748 13.7244L9.78674 17.9626C10.221 18.1459 10.716 18.2989 11.2284 18.4284L12.3561 13.9688ZM11.6288 13.748C11.7175 13.7881 11.7936 13.8378 11.8538 13.8879C11.9119 13.9363 11.9429 13.9748 11.9513 13.9859L8.28452 16.7635C8.64105 17.2341 9.1136 17.6589 9.73271 17.939L11.6288 13.748ZM11.9751 14.0179C12.1182 14.2138 12.1714 14.3832 12.19 14.4586C12.2084 14.5336 12.2025 14.555 12.2025 14.4995H7.60253C7.60253 15.1059 7.70489 15.9706 8.26068 16.7314L11.9751 14.0179ZM12.2025 14.4995C12.2025 14.4852 12.2041 14.528 12.1784 14.6032C12.1514 14.6823 12.1105 14.75 12.0723 14.796L8.53297 11.8577C7.88512 12.6381 7.60253 13.5571 7.60253 14.4995H12.2025ZM12.0609 14.8096C11.9952 14.8875 11.9245 14.9403 11.8717 14.9702C11.8239 14.9972 11.8138 14.9926 11.8699 14.9793L10.809 10.5033C9.99481 10.6963 9.17424 11.0972 8.54437 11.8441L12.0609 14.8096ZM11.8697 14.9793C12.9722 14.7181 13.8293 13.9282 14.2111 12.9245L9.91168 11.289C10.0558 10.91 10.3843 10.6039 10.8092 10.5032L11.8697 14.9793ZM9.94414 13.0052C10.377 14.0254 11.3097 14.801 12.4753 14.9868L13.1993 10.4442C13.6535 10.5166 14.0145 10.8214 14.1787 11.2083L9.94414 13.0052ZM12.4755 14.9869C12.6149 15.0091 12.7098 15.0393 12.7683 15.0637L14.5365 10.8171C14.1045 10.6372 13.6539 10.5166 13.199 10.4441L12.4755 14.9869ZM11.4778 12.1913L11.3072 12.6868L15.6563 14.1849L15.827 13.6895L11.4778 12.1913ZM14.3386 11.3014C13.6394 11.0207 12.8932 10.856 12.1221 10.856V15.456C12.2326 15.456 12.3979 15.4792 12.6249 15.5703L14.3386 11.3014ZM12.1221 10.856C10.7987 10.856 9.65534 11.3528 8.94227 12.3358C8.32865 13.1816 8.28391 14.0564 8.28391 14.3685H12.8839C12.8839 14.4504 12.8772 14.5382 12.8538 14.635C12.83 14.7332 12.779 14.8808 12.6657 15.0369C12.5423 15.2069 12.3827 15.3342 12.2249 15.4067C12.0796 15.4735 12.019 15.456 12.1221 15.456V10.856ZM8.28391 14.3685C8.28391 15.738 9.069 16.8775 10.2206 17.4429L12.2479 13.3138C12.383 13.3801 12.5527 13.5069 12.6878 13.7166C12.8249 13.9294 12.8839 14.1629 12.8839 14.3685H8.28391ZM10.216 17.4407L10.2276 17.4464L12.264 13.3217L12.2525 13.316L10.216 17.4407ZM10.302 17.4815L10.3137 17.4868L12.2014 13.2919L12.1896 13.2866L10.302 17.4815ZM10.3201 17.4896C10.7339 17.6743 11.2024 17.8034 11.668 17.9119L12.712 13.432C12.5298 13.3895 12.4001 13.3548 12.3089 13.3271C12.2157 13.2989 12.1856 13.2849 12.1949 13.289L10.3201 17.4896ZM11.6829 17.9153C12.0372 17.9954 12.255 18.0706 12.3674 18.1199L14.2131 13.9064C13.7463 13.7019 13.2268 13.5483 12.6972 13.4285L11.6829 17.9153ZM12.3654 18.119L12.3714 18.1216L14.2211 13.9099L14.2151 13.9073L12.3654 18.119ZM12.4156 18.1405L12.4216 18.143L14.183 13.8936L14.177 13.8911L12.4156 18.1405ZM12.4185 18.1417C12.3176 18.0997 12.2282 18.0447 12.1552 17.9855C12.0846 17.9283 12.0446 17.8797 12.0297 17.86L15.7026 15.0905C15.3346 14.6024 14.8391 14.1666 14.1861 13.8949L12.4185 18.1417ZM12.055 17.8929L12.0577 17.8963L15.6799 15.0609L15.6773 15.0575L12.055 17.8929ZM12.0288 17.8586L12.0314 17.8621L15.7114 15.1021L15.7088 15.0986L12.0288 17.8586ZM12.0523 17.8895C11.8884 17.6776 11.8264 17.4887 11.8044 17.4017C11.7824 17.3152 11.7881 17.2846 11.7881 17.3361H16.3881C16.3881 16.7378 16.287 15.8456 15.6906 15.0747L12.0523 17.8895ZM11.7881 17.3361C11.7881 17.3302 11.7896 17.2788 11.8156 17.203C11.8421 17.1254 11.8792 17.0665 11.906 17.0331L15.4917 19.9145C16.0996 19.1581 16.3881 18.2707 16.3881 17.3361H11.7881ZM11.906 17.0331C11.9623 16.9631 12.0263 16.9101 12.0807 16.8766C12.1305 16.8459 12.1479 16.8463 12.1055 16.8582L13.3523 21.286C14.1365 21.0652 14.9044 20.6454 15.4917 19.9146L11.906 17.0331ZM12.1051 16.8583C11.0228 17.1633 10.2095 17.9807 9.86395 18.9738L14.2084 20.4855C14.0812 20.8513 13.7777 21.1662 13.3526 21.2859L12.1051 16.8583Z" fill="#4A4A4A" mask="url(#path-1-inside-1_62_221)"/>
<path d="M10.2447 19.3132L10.2447 19.313L10.2447 19.3132ZM13.3693 12.4306L13.3692 12.4308L13.3693 12.4306Z" fill="black" stroke="#4A4A4A" stroke-width="2.3"/>
<path fill-rule="evenodd" clip-rule="evenodd" d="M8.91107 2H15.0961C16.6802 2 15.8103 4.43781 15.1689 5.92482L14.439 7.63012L14.3404 7.86013C15.0318 7.82572 15.7155 8.02208 16.2888 8.41977C18.4334 10.4324 20.174 12.8556 21.4126 15.553C21.8951 16.5504 22.0866 17.6697 21.9639 18.7761C21.8165 21.5961 19.6106 23.8433 16.8601 23.9755H7.14699C4.39581 23.8473 2.18664 21.6024 2.03615 18.782C1.91337 17.6756 2.10484 16.5563 2.58752 15.5589C3.82751 12.8588 5.57052 10.4335 7.71836 8.41977C8.29173 8.02208 8.97534 7.82572 9.66666 7.86013L9.55239 7.59496L8.83823 5.92482C8.19972 4.43781 7.32554 2 8.91107 2Z" stroke="#4A4A4A" stroke-width="2.3" stroke-linecap="round" stroke-linejoin="round"/>
<mask id="path-5-inside-2_62_221" fill="white">
<path d="M14.3405 8.9589C14.9473 8.9589 15.4393 8.46695 15.4393 7.86012C15.4393 7.25329 14.9473 6.76135 14.3405 6.76135V8.9589ZM9.66674 6.76135C9.05994 6.76135 8.56799 7.25329 8.56799 7.86012C8.56799 8.46695 9.05994 8.9589 9.66674 8.9589V6.76135ZM18.2657 7.34719C18.7915 7.04428 18.9723 6.37246 18.6694 5.84663C18.3664 5.3208 17.6947 5.14009 17.1689 5.443L18.2657 7.34719ZM14.4391 7.63011L14.6511 8.70825L14.6543 8.70762L14.4391 7.63011ZM9.55247 7.59495L9.77999 6.51993L9.77002 6.5179L9.55247 7.59495ZM6.8215 5.4334C6.29037 5.13988 5.62186 5.33249 5.32834 5.86361C5.0348 6.39474 5.22741 7.06325 5.75854 7.35678L6.8215 5.4334ZM14.3405 6.76135H9.66674V8.9589H14.3405V6.76135ZM17.1689 5.443C16.2503 5.97211 15.2561 6.3465 14.2239 6.55261L14.6543 8.70762C15.922 8.45446 17.1413 7.99495 18.2657 7.34719L17.1689 5.443ZM14.2271 6.55198C12.7571 6.84106 11.246 6.83013 9.77999 6.51993L9.32503 8.66992C11.0806 9.04139 12.8905 9.05443 14.6511 8.70825L14.2271 6.55198ZM9.77002 6.5179C8.7405 6.31006 7.74659 5.94467 6.8215 5.4334L5.75854 7.35678C6.87902 7.97601 8.08462 8.41953 9.33504 8.672L9.77002 6.5179Z"/>
</mask>
<path d="M14.3405 8.9589C14.9473 8.9589 15.4393 8.46695 15.4393 7.86012C15.4393 7.25329 14.9473 6.76135 14.3405 6.76135V8.9589ZM9.66674 6.76135C9.05994 6.76135 8.56799 7.25329 8.56799 7.86012C8.56799 8.46695 9.05994 8.9589 9.66674 8.9589V6.76135ZM18.2657 7.34719C18.7915 7.04428 18.9723 6.37246 18.6694 5.84663C18.3664 5.3208 17.6947 5.14009 17.1689 5.443L18.2657 7.34719ZM14.4391 7.63011L14.6511 8.70825L14.6543 8.70762L14.4391 7.63011ZM9.55247 7.59495L9.77999 6.51993L9.77002 6.5179L9.55247 7.59495ZM6.8215 5.4334C6.29037 5.13988 5.62186 5.33249 5.32834 5.86361C5.0348 6.39474 5.22741 7.06325 5.75854 7.35678L6.8215 5.4334ZM14.3405 6.76135H9.66674V8.9589H14.3405V6.76135ZM17.1689 5.443C16.2503 5.97211 15.2561 6.3465 14.2239 6.55261L14.6543 8.70762C15.922 8.45446 17.1413 7.99495 18.2657 7.34719L17.1689 5.443ZM14.2271 6.55198C12.7571 6.84106 11.246 6.83013 9.77999 6.51993L9.32503 8.66992C11.0806 9.04139 12.8905 9.05443 14.6511 8.70825L14.2271 6.55198ZM9.77002 6.5179C8.7405 6.31006 7.74659 5.94467 6.8215 5.4334L5.75854 7.35678C6.87902 7.97601 8.08462 8.41953 9.33504 8.672L9.77002 6.5179Z" fill="black"/>
<path d="M13.1905 6.76135V8.9589H15.4905V6.76135H13.1905ZM10.8167 8.9589V6.76135H8.51674V8.9589H10.8167ZM16.1724 6.01701L17.2693 7.9212L19.2622 6.77317L18.1654 4.86898L16.1724 6.01701ZM6.76507 7.91303L7.82802 5.98965L5.81498 4.87715L4.75202 6.80053L6.76507 7.91303ZM18.2657 7.34719L19.4139 9.34013L19.4139 9.34013L18.2657 7.34719ZM17.1689 5.443L18.3169 7.43601L18.317 7.43594L17.1689 5.443ZM14.4391 7.63011L16.6945 7.17962L12.1823 8.07386L14.4391 7.63011ZM14.6543 8.70762L15.0956 10.9649L15.1047 10.9631L14.6543 8.70762ZM9.55247 7.59495L7.298 7.13956L11.8026 8.07118L9.55247 7.59495ZM9.77999 6.51993L10.2561 4.26975L10.2468 4.26777L10.2374 4.26588L9.77999 6.51993ZM9.77002 6.5179L10.2275 4.26385L10.2252 4.26339L9.77002 6.5179ZM6.8215 5.4334L7.93403 3.42037L7.93397 3.42034L6.8215 5.4334ZM5.32834 5.86361L7.34137 6.97612L7.34138 6.9761L5.32834 5.86361ZM5.75854 7.35678L4.64603 9.36982L4.64604 9.36983L5.75854 7.35678ZM14.2239 6.55261L13.7735 4.29713L11.5179 4.74752L11.9684 7.0031L14.2239 6.55261ZM14.2271 6.55198L16.4839 6.10824L16.0401 3.8514L13.7833 4.2952L14.2271 6.55198ZM9.32503 8.66992L7.07486 8.19377L6.5987 10.444L8.84891 10.9201L9.32503 8.66992ZM9.33504 8.672L8.87984 10.9265L11.1343 11.3817L11.5895 9.12726L9.33504 8.672ZM14.3405 11.2589C16.2175 11.2589 17.7393 9.73723 17.7393 7.86012H13.1393C13.1393 7.19668 13.6771 6.6589 14.3405 6.6589V11.2589ZM17.7393 7.86012C17.7393 5.98302 16.2175 4.46135 14.3405 4.46135V9.06135C13.6771 9.06135 13.1393 8.52357 13.1393 7.86012H17.7393ZM9.66674 4.46135C7.78964 4.46135 6.26799 5.98308 6.26799 7.86012H10.868C10.868 8.52351 10.3302 9.06135 9.66674 9.06135V4.46135ZM6.26799 7.86012C6.26799 9.73717 7.78964 11.2589 9.66674 11.2589V6.6589C10.3302 6.6589 10.868 7.19674 10.868 7.86012H6.26799ZM19.4139 9.34013C21.0401 8.40327 21.5996 6.32519 20.6622 4.69839L16.6765 6.99487C16.3451 6.41972 16.543 5.68528 17.1176 5.35425L19.4139 9.34013ZM20.6622 4.69839C19.7253 3.07225 17.6475 2.51292 16.0208 3.45005L18.317 7.43594C17.7419 7.76725 17.0075 7.56934 16.6765 6.99487L20.6622 4.69839ZM12.1823 8.07386L12.3943 9.15199L16.9079 8.2645L16.6959 7.18637L12.1823 8.07386ZM15.0924 10.9655L15.0956 10.9649L14.213 6.45034L14.2098 6.45097L15.0924 10.9655ZM16.9097 8.25713L16.6945 7.17962L12.1836 8.0806L12.3988 9.15811L16.9097 8.25713ZM11.8026 8.07118L12.0301 6.99615L7.52983 6.0437L7.30231 7.11873L11.8026 8.07118ZM10.2374 4.26588L10.2275 4.26385L9.31258 8.77195L9.32254 8.77398L10.2374 4.26588ZM7.51556 6.06251L7.298 7.13956L11.8069 8.05034L12.0245 6.97329L7.51556 6.06251ZM7.93397 3.42034C6.29112 2.51245 4.22325 3.10817 3.31529 4.75111L7.34138 6.9761C7.02046 7.5568 6.28961 7.76731 5.70903 7.44646L7.93397 3.42034ZM3.3153 4.75109C2.40734 6.39399 3.00313 8.46186 4.64603 9.36982L6.87106 5.34375C7.45169 5.66464 7.66226 6.39549 7.34137 6.97612L3.3153 4.75109ZM14.3405 4.46135H9.66674V9.06135H14.3405V4.46135ZM9.66674 11.2589H14.3405V6.6589H9.66674V11.2589ZM16.0209 3.44998C15.3178 3.85495 14.5591 4.14027 13.7735 4.29713L14.6742 8.80809C15.9531 8.55273 17.1828 8.08926 18.3169 7.43601L16.0209 3.44998ZM11.9684 7.0031L12.3988 9.1581L16.9097 8.25713L16.4793 6.10212L11.9684 7.0031ZM15.1047 10.9631C16.619 10.6607 18.0738 10.1121 19.4139 9.34013L17.1176 5.35424C16.2089 5.87778 15.225 6.24823 14.2039 6.45215L15.1047 10.9631ZM13.7833 4.2952C12.6174 4.52449 11.4192 4.51585 10.2561 4.26975L9.30387 8.77011C11.0729 9.14441 12.8968 9.15764 14.6709 8.80876L13.7833 4.2952ZM7.52981 6.04378L7.07486 8.19377L11.5752 9.14607L12.0302 6.99608L7.52981 6.04378ZM8.84891 10.9201C10.9075 11.3557 13.0303 11.371 15.0948 10.965L14.2073 6.45146C12.7508 6.73787 11.2538 6.7271 9.80116 6.41974L8.84891 10.9201ZM16.9079 8.2645L16.4839 6.10824L11.9703 6.99573L12.3943 9.15199L16.9079 8.2645ZM10.2252 4.26339C9.42694 4.10224 8.65461 3.81861 7.93403 3.42037L5.70897 7.44643C6.83858 8.07072 8.05406 8.51788 9.31487 8.77242L10.2252 4.26339ZM4.64604 9.36983C5.971 10.1021 7.39815 10.6273 8.87984 10.9265L9.79024 6.4175C8.77109 6.21172 7.78704 5.84996 6.87105 5.34374L4.64604 9.36983ZM11.5895 9.12726L12.0245 6.97316L7.51553 6.06265L7.08055 8.21674L11.5895 9.12726Z" fill="#4A4A4A" mask="url(#path-5-inside-2_62_221)"/>
</svg>
