<svg width="61" height="60" viewBox="0 0 61 60" fill="none" xmlns="http://www.w3.org/2000/svg">
<g clip-path="url(#clip0_66_129)">
<path d="M18.4306 15.8794L16.9062 13.5356C6.35938 20.625 0.5 29.2388 0.5 36.3281C0.5 43.1831 5.54 46.4063 9.81687 46.4063C15.2075 46.4063 19.0156 41.835 19.0156 37.0313C19.0156 32.9888 16.4375 29.5313 12.98 28.2413C11.9844 27.8888 11.0469 27.5963 11.0469 25.8975C11.0469 23.73 12.6294 20.5088 18.4306 15.8794ZM41.6919 15.8794L40.1675 13.5356C29.7369 20.625 23.7612 29.2388 23.7612 36.3281C23.7612 43.1831 28.9175 46.4063 33.1944 46.4063C38.6431 46.4063 42.5112 41.835 42.5112 37.0313C42.5112 32.9888 39.875 29.5313 36.2994 28.2413C35.3037 27.8888 34.4244 27.5963 34.4244 25.8975C34.4244 23.73 36.065 20.5069 41.69 15.8775L41.6919 15.8794Z" fill="#5D92FF" fill-opacity="0.05"/>
</g>
<defs>
<clipPath id="clip0_66_129">
<rect width="60" height="60" fill="white" transform="translate(0.5)"/>
</clipPath>
</defs>
</svg>
