<svg width="532" height="317" viewBox="0 0 532 317" fill="none" xmlns="http://www.w3.org/2000/svg">
<g clip-path="url(#clip0_60_369)">
<path d="M57.7543 222.93C55.4581 223.177 52.9512 223.547 50.2843 224.092C38.9849 226.396 38.7451 234.069 38.8468 235.828L38.7669 235.777C37.6333 237.601 36.9212 239.447 36.4852 241.183L35.9693 217.662C36.3036 216.964 36.6087 216.172 36.8631 215.365C37.706 217.974 39.0939 220.43 40.2929 220.27C41.8479 220.06 42.5237 215.482 42.233 212.233C44.2095 214.777 47.5376 217.502 48.7947 216.659C49.7975 215.99 49.2016 213.229 48.1117 210.715C50.3933 212.088 52.9221 212.989 53.7069 212.117C54.7751 210.925 52.21 206.863 49.8484 204.596C53.0093 204.894 57.035 204.386 57.3038 202.947C57.5218 201.762 55.1239 200.265 52.5588 199.299C55.1311 198.623 57.5436 197.439 57.4637 196.269C57.3692 194.881 53.7941 193.944 50.7058 193.806C53.0311 191.989 55.1675 189.467 54.5135 188.334C53.9103 187.287 51.12 187.694 48.5404 188.617C50.0664 186.437 51.1418 183.974 50.3207 183.131C49.3034 182.085 45.6919 183.894 43.2213 185.892C43.7009 182.775 43.4611 178.844 42.0586 178.488C40.8887 178.19 39.232 180.479 38.0984 182.971C37.597 180.355 36.5797 177.87 35.4098 177.87C33.7385 177.87 32.3869 182.906 32.3869 186.19C32.3869 186.379 32.3869 186.554 32.4014 186.721C32.2343 186.524 32.0381 186.321 31.8201 186.11C29.4657 183.821 24.9096 181.285 23.7397 182.484C22.9259 183.327 23.9941 185.783 25.52 187.971C22.9404 187.048 20.1428 186.641 19.5469 187.687C18.7404 189.09 22.192 192.599 24.9968 194.3C24.8297 194.278 24.648 194.263 24.4591 194.249C21.1819 194.024 16.0663 195.034 15.95 196.698C15.8701 197.868 18.2753 199.052 20.8549 199.728C18.2898 200.694 15.8991 202.191 16.1099 203.376C16.3715 204.814 20.3971 205.323 23.5653 205.025C21.2037 207.292 18.6386 211.354 19.7068 212.546C20.4916 213.418 23.0203 212.517 25.302 211.143C24.2048 213.658 23.6162 216.419 24.619 217.088C25.9415 217.974 29.582 214.886 31.4931 212.233C31.2969 215.482 32.0744 219.943 33.6149 220.118C34.2617 220.19 34.9447 219.5 35.5624 218.446L33.8184 243.727C33.4115 246.67 36.0202 248.595 36.2527 249.801L36.6305 266.921C36.2018 265.701 35.635 264.451 34.8575 263.215L34.7776 263.266C34.8793 261.508 34.6395 253.834 23.3401 251.531C20.6732 250.986 18.1663 250.615 15.8701 250.368C13.1597 250.078 12.0987 253.791 14.5476 254.99C18.0936 256.726 21.429 258.914 23.1729 261.501C27.6201 268.12 33.7603 264.298 34.6395 263.702C35.6132 265.33 36.2527 266.965 36.6596 268.52L36.8631 277.61C36.8122 277.828 36.7831 277.945 36.7759 277.952L36.8703 277.981L37.3572 299.984L41.8479 299.948L40.242 277.458C40.5109 276.244 41.3393 272.11 40.242 267.822L38.6361 250.15L36.5433 243.203C36.8485 241.053 37.5534 238.64 38.9922 236.249C39.8641 236.845 46.0116 240.675 50.4587 234.048C52.1954 231.461 55.538 229.273 59.0841 227.537C61.5329 226.338 60.4793 222.625 57.7616 222.915L57.7543 222.93ZM37.2409 274.987L37.1537 271.136C37.3209 272.589 37.3136 273.904 37.2409 274.987Z" fill="#F2F2F2"/>
<path d="M0 301.045C0 301.525 0.385126 301.91 0.864717 301.91H530.805C531.285 301.91 531.67 301.525 531.67 301.045C531.67 300.565 531.285 300.18 530.805 300.18H0.864717C0.385126 300.18 0 300.565 0 301.045Z" fill="#3F3D56"/>
<path d="M321.602 301.808C343.273 301.808 360.841 284.24 360.841 262.569C360.841 240.897 343.273 223.329 321.602 223.329C299.931 223.329 282.363 240.897 282.363 262.569C282.363 284.24 299.931 301.808 321.602 301.808Z" fill="#3F3D56"/>
<path d="M321.602 288.728C336.049 288.728 347.761 277.016 347.761 262.569C347.761 248.121 336.049 236.409 321.602 236.409C307.154 236.409 295.442 248.121 295.442 262.569C295.442 277.016 307.154 288.728 321.602 288.728Z" fill="white"/>
<path d="M321.602 277.465C329.829 277.465 336.498 270.796 336.498 262.569C336.498 254.342 329.829 247.672 321.602 247.672C313.375 247.672 306.706 254.342 306.706 262.569C306.706 270.796 313.375 277.465 321.602 277.465Z" fill="#3F3D56"/>
<path d="M94.8863 301.808C116.558 301.808 134.126 284.24 134.126 262.569C134.126 240.897 116.558 223.329 94.8863 223.329C73.2151 223.329 55.6471 240.897 55.6471 262.569C55.6471 284.24 73.2151 301.808 94.8863 301.808Z" fill="#3F3D56"/>
<path d="M94.8863 288.728C109.334 288.728 121.046 277.016 121.046 262.569C121.046 248.121 109.334 236.409 94.8863 236.409C80.4388 236.409 68.7268 248.121 68.7268 262.569C68.7268 277.016 80.4388 288.728 94.8863 288.728Z" fill="white"/>
<path d="M375.28 243.908C370.171 231.025 352.31 191.662 320.497 178.633C320.25 178.531 319.996 178.466 319.734 178.43L217.705 163.817C216.027 163.577 214.457 164.725 214.188 166.403L212.401 177.449C212.277 178.204 212.437 178.982 212.851 179.629C218.032 187.665 251.24 242.23 198.064 242.23C144.887 242.23 130.231 204.175 127.905 197.453C127.687 196.821 127.68 196.138 127.876 195.499L143.994 144.451C144.277 143.543 144.124 142.613 143.659 141.872L150.744 128.712L163.722 136.058L170.444 136.138L193.384 148.128L198.056 140.498L150.744 116.897C150.744 116.897 150.824 111.432 135.564 107.072L111.585 96.1725L108.678 99.8057L115.945 105.619L116.671 109.979L121.758 111.432L131.931 131.052L129.024 136.676L132.556 138.398L131.546 138.166C130.085 137.831 128.596 138.587 128 139.961L111.97 176.7C111.723 177.26 111.316 177.739 110.8 178.074L105.089 181.758C104.558 182.099 104.137 182.601 103.897 183.189L97.3715 199.008C97.168 199.502 97.1099 200.018 97.1607 200.52C89.0295 202.06 65.1299 208.716 51.9993 234.97L67.259 247.324C67.259 247.324 91.1804 231.846 130.71 247.963C137.584 258.659 147.605 267.532 162.08 268.367C200.236 270.576 263.455 272.756 270.722 264.036C276.041 257.649 279.74 253.667 281.345 251.989C281.912 251.4 282.682 251.058 283.496 251.029L372.475 248.188C374.633 248.123 376.065 245.928 375.273 243.923L375.28 243.908Z" fill="#4380FF"/>
<path d="M129.766 129.591C136.187 129.591 141.392 124.386 141.392 117.965C141.392 111.544 136.187 106.338 129.766 106.338C123.345 106.338 118.139 111.544 118.139 117.965C118.139 124.386 123.345 129.591 129.766 129.591Z" fill="#3F3D56"/>
<path d="M315.956 178.684C315.818 178.684 315.68 178.684 315.542 178.677L218.33 174.913C214.028 174.745 210.344 172.006 208.942 167.937L207.612 164.064C206.529 160.91 207.002 157.524 208.905 154.784C210.817 152.045 213.825 150.432 217.16 150.352L317.598 148.041C320.708 147.968 323.702 149.298 325.729 151.696C327.757 154.094 328.585 157.233 327.997 160.321L326.1 170.262C325.163 175.196 320.926 178.677 315.949 178.677L315.956 178.684Z" fill="#3F3D56"/>
<path d="M94.8863 277.465C103.113 277.465 109.783 270.796 109.783 262.569C109.783 254.342 103.113 247.672 94.8863 247.672C86.6593 247.672 79.9899 254.342 79.9899 262.569C79.9899 270.796 86.6593 277.465 94.8863 277.465Z" fill="#3F3D56"/>
<path d="M355.013 220.161C352.688 220.161 350.472 218.919 349.287 216.775L341.926 203.448C340.757 201.334 340.829 198.856 342.108 196.814C343.387 194.765 345.596 193.617 347.994 193.747L361.357 194.43C363.842 194.561 366.08 196.124 367.054 198.42L370.956 207.648C371.668 209.341 371.654 211.187 370.905 212.866C370.157 214.537 368.791 215.794 367.061 216.39L357.164 219.805C356.46 220.052 355.733 220.168 355.021 220.168L355.013 220.161Z" fill="#3F3D56"/>
<path d="M186.03 308.733C185.921 308.733 185.805 308.733 185.696 308.711L182.731 308.384C181.765 308.275 180.922 307.73 180.428 306.887C179.934 306.044 179.868 305.049 180.246 304.148L195.68 267.495C196.102 266.493 197.039 265.78 198.122 265.642C199.175 265.512 200.2 265.926 200.876 266.747C201.544 267.568 201.748 268.658 201.406 269.661L188.944 306.64C188.523 307.89 187.331 308.726 186.038 308.726L186.03 308.733Z" fill="#3F3D56"/>
<path d="M266.158 52.9585C266.158 52.9585 260.512 41.6663 261.639 31.5077L242.847 41.2448L243.574 59.7309L266.158 52.9585Z" fill="#A0616A"/>
<path d="M254.496 46.4622C263.858 46.4622 271.448 38.8722 271.448 29.5094C271.448 20.1466 263.858 12.5566 254.496 12.5566C245.133 12.5566 237.543 20.1466 237.543 29.5094C237.543 38.8722 245.133 46.4622 254.496 46.4622Z" fill="#A0616A"/>
<path d="M271.812 295.697H261.464L256.545 255.796H271.812V295.697Z" fill="#A0616A"/>
<path d="M236.373 295.457C236.053 296.002 235.879 297.753 235.879 298.378C235.879 300.318 237.448 301.888 239.388 301.888H271.419C272.742 301.888 273.817 300.812 273.817 299.49V298.153C273.817 298.153 275.401 294.142 272.139 289.208C272.139 289.208 268.084 293.074 262.024 287.021L260.236 283.787L247.302 293.248L240.13 294.127C238.56 294.323 237.172 294.098 236.366 295.457H236.373Z" fill="#2F2E41"/>
<path d="M241.314 52.9585L266.158 49.5723L285.357 58.6046L286.483 128.61C286.483 128.61 239.265 134.256 231.824 126.917C224.383 119.578 230.029 60.8644 230.029 60.8644L241.321 52.9585H241.314Z" fill="#E6E6E6"/>
<path d="M250.252 33.8257H245.696C245.696 33.8257 241.743 28.9571 242.273 31.9218C242.804 34.8866 240.675 38.0766 240.675 38.0766L237.485 37.0157C237.485 37.0157 231.105 10.1804 250.252 8.70528C269.399 7.23018 273.657 22.1266 273.657 22.1266C273.657 22.1266 272.597 29.5747 270.467 27.4457C268.338 25.3166 256.639 24.2557 256.639 24.2557L250.259 33.8329L250.252 33.8257Z" fill="#2F2E41"/>
<path d="M238.197 286.73L228.249 289.535L212.669 252.483L227.362 248.334L238.197 286.73Z" fill="#A0616A"/>
<path d="M204.03 296.133C203.87 296.743 204.182 298.473 204.349 299.083C204.872 300.95 206.813 302.033 208.68 301.51L239.505 292.805C240.776 292.449 241.518 291.119 241.162 289.847L240.798 288.561C240.798 288.561 241.234 284.274 236.751 280.408C236.751 280.408 233.902 285.233 226.425 281.047L223.824 278.417L213.948 291.032L207.292 293.829C205.839 294.44 204.436 294.607 204.03 296.133Z" fill="#2F2E41"/>
<path d="M283.089 121.838L286.476 132.084V167.29L276.31 273.556H256.458L254.219 197.7L255.985 160.234L218.119 217.523L234.76 258.441L216.441 270.656C216.441 270.656 189.046 208.23 193.144 202.177C197.243 196.131 233.953 124.723 233.953 124.723C233.953 124.723 283.075 122.971 283.075 121.845L283.089 121.838Z" fill="#2F2E41"/>
<path d="M293.255 81.189L298.712 90.1268C298.712 90.1268 306.429 120.457 298.712 120.581C290.995 120.704 275.416 105.125 275.416 105.125L277.451 96.9937L283.097 99.2535L281.97 81.189H293.262H293.255Z" fill="#A0616A"/>
<path d="M276.317 58.4665C276.317 58.4665 294.382 55.2838 296.075 67.1064C297.768 78.929 298.712 90.134 298.712 90.134L279.136 91.7545L276.317 58.4665Z" fill="#E6E6E6"/>
<path d="M280.241 104.135C281.875 101.84 279.483 97.3322 274.896 94.0658C270.31 90.7993 265.267 90.0116 263.633 92.3063C261.999 94.601 264.392 99.1092 268.978 102.376C273.564 105.642 278.607 106.43 280.241 104.135Z" fill="#A0616A"/>
<path d="M429.074 222.93C426.778 223.177 424.271 223.547 421.604 224.092C410.305 226.396 410.065 234.069 410.166 235.828L410.086 235.777C408.953 237.601 408.241 239.447 407.805 241.183L407.289 217.662C407.623 216.964 407.928 216.172 408.183 215.365C409.026 217.974 410.413 220.43 411.612 220.27C413.168 220.06 413.843 215.482 413.553 212.233C415.529 214.777 418.857 217.502 420.114 216.659C421.117 215.99 420.521 213.229 419.431 210.715C421.713 212.088 424.242 212.989 425.026 212.117C426.095 210.925 423.53 206.863 421.168 204.596C424.329 204.894 428.355 204.386 428.623 202.947C428.841 201.762 426.443 200.265 423.878 199.299C426.451 198.623 428.863 197.439 428.783 196.269C428.689 194.881 425.114 193.944 422.025 193.806C424.351 191.989 426.487 189.467 425.833 188.334C425.23 187.287 422.44 187.694 419.86 188.617C421.386 186.437 422.461 183.974 421.64 183.131C420.623 182.085 417.011 183.894 414.541 185.892C415.02 182.775 414.781 178.844 413.378 178.488C412.208 178.19 410.552 180.479 409.418 182.971C408.917 180.355 407.899 177.87 406.729 177.87C405.058 177.87 403.706 182.906 403.706 186.19C403.706 186.379 403.707 186.554 403.721 186.721C403.554 186.524 403.358 186.321 403.14 186.11C400.785 183.821 396.229 181.285 395.059 182.484C394.245 183.327 395.314 185.783 396.84 187.971C394.26 187.048 391.462 186.641 390.867 187.687C390.06 189.09 393.512 192.599 396.316 194.3C396.149 194.278 395.968 194.263 395.779 194.249C392.501 194.024 387.386 195.034 387.27 196.698C387.19 197.868 389.595 199.052 392.175 199.728C389.609 200.694 387.219 202.191 387.429 203.376C387.691 204.814 391.717 205.323 394.885 205.025C392.523 207.292 389.958 211.354 391.026 212.546C391.811 213.418 394.34 212.517 396.622 211.143C395.524 213.658 394.936 216.419 395.939 217.088C397.261 217.974 400.902 214.886 402.813 212.233C402.617 215.482 403.394 219.943 404.935 220.118C405.581 220.19 406.264 219.5 406.882 218.446L405.138 243.727C404.731 246.67 407.34 248.595 407.572 249.801L407.95 266.921C407.521 265.701 406.955 264.451 406.177 263.215L406.097 263.266C406.199 261.508 405.959 253.834 394.66 251.531C391.993 250.986 389.486 250.615 387.19 250.368C384.479 250.078 383.418 253.791 385.867 254.99C389.413 256.726 392.749 258.914 394.493 261.501C398.94 268.12 405.08 264.298 405.959 263.702C406.933 265.33 407.572 266.965 407.979 268.52L408.183 277.61C408.132 277.828 408.103 277.945 408.095 277.952L408.19 277.981L408.677 299.984L413.168 299.948L411.562 277.458C411.83 276.244 412.659 272.11 411.562 267.822L409.956 250.15L407.863 243.203C408.168 241.053 408.873 238.64 410.312 236.249C411.184 236.845 417.331 240.675 421.778 234.048C423.515 231.461 426.858 229.273 430.404 227.537C432.853 226.338 431.799 222.625 429.081 222.915L429.074 222.93ZM408.561 274.987L408.473 271.136C408.64 272.589 408.633 273.904 408.561 274.987Z" fill="#F2F2F2"/>
<path d="M376.777 297.252L384.588 295.566L381.791 264.654L370.273 267.139L376.777 297.252Z" fill="#A0616A"/>
<path d="M403.488 291.301C403.823 291.657 404.237 292.95 404.339 293.43C404.658 294.89 403.728 296.336 402.26 296.649L378.085 301.873C377.089 302.091 376.101 301.452 375.883 300.456L375.665 299.446C375.665 299.446 373.812 296.678 375.469 292.42C375.469 292.42 379.16 294.679 382.742 289.113L383.564 286.381L394.87 291.41L400.422 290.908C401.635 290.799 402.653 290.399 403.481 291.301H403.488Z" fill="#2F2E41"/>
<path d="M390.743 294.89L397.254 290.269L382.525 262.947L372.911 269.763L390.743 294.89Z" fill="#A0616A"/>
<path d="M412.957 278.904C413.4 279.1 414.294 280.125 414.57 280.524C415.435 281.745 415.151 283.438 413.93 284.303L393.759 298.618C392.923 299.207 391.775 299.01 391.179 298.182L390.583 297.339C390.583 297.339 387.793 295.522 387.64 290.952C387.64 290.952 391.92 291.577 393.032 285.051L392.712 282.217L405.087 282.392L409.999 279.747C411.075 279.165 411.852 278.402 412.964 278.904H412.957Z" fill="#2F2E41"/>
<path d="M296.91 142.039C296.91 142.039 284.768 158.548 309.053 177.114L358.647 161.266L340.931 124.323L325.243 115.719L296.903 142.032L296.91 142.039Z" fill="#2F2E41"/>
<path d="M358.654 161.273L377.881 198.718L390.031 276.658L374.851 277.669L359.664 203.782L332.843 163.802L351.569 155.198" fill="#2F2E41"/>
<path d="M309.06 165.357V177.122L343.474 214.915C343.474 214.915 343.474 243.254 356.634 256.414L371.814 279.696L384.973 272.611L365.746 204.8L331.332 160.263L309.067 165.357H309.06Z" fill="#2F2E41"/>
<path d="M333.512 48.7366L327.03 73.4501L302.317 68.5888C302.317 68.5888 319.56 50.8076 317.133 42.7054L333.519 48.7366H333.512Z" fill="#A0616A"/>
<path d="M314.626 52.4643L329.806 59.5492C329.806 59.5492 337.617 64.3233 337.763 67.506C337.908 70.6887 336.891 85.8685 336.891 85.8685C336.891 85.8685 342.966 91.9433 338.918 104.086L340.945 124.33L295.399 148.622L299.446 106.113L297.419 66.6413L314.626 52.4716V52.4643Z" fill="#3F3D56"/>
<path d="M301.001 167.653C302.782 171.73 306.328 174.121 308.922 172.987C311.516 171.853 312.177 167.632 310.404 163.555C309.714 161.913 308.646 160.467 307.28 159.326L299.526 142.141L291.54 145.948L300.028 162.487C299.933 164.26 300.267 166.033 301.001 167.653Z" fill="#A0616A"/>
<path d="M309.06 69.1701C309.06 69.1701 297.928 62.0852 293.88 70.1801C289.833 78.275 280.72 119.774 280.72 119.774L293.88 159.246L306.023 154.188L295.392 111.708L309.053 69.1701H309.06Z" fill="#3F3D56"/>
<path d="M366.124 161.281C369.278 164.42 373.456 165.335 375.454 163.322C377.452 161.31 376.508 157.146 373.354 154.007C372.112 152.735 370.578 151.783 368.893 151.224L355.355 138.1L349.331 144.582L363.312 156.826C363.879 158.512 364.845 160.038 366.124 161.273V161.281Z" fill="#A0616A"/>
<path d="M337.334 66.7503C337.334 66.7503 317.925 65.9582 317.14 74.976C316.363 83.9938 329.631 124.236 329.631 124.236L356.409 156.085L365.833 146.907L340.306 111.33L337.341 66.7503H337.334Z" fill="#3F3D56"/>
<path d="M280.502 139.823L264.291 90.6063C251.182 79.0598 236.961 106.869 198.79 91.1004L210.795 146.769C239.657 131.168 264.494 125.057 280.502 139.823Z" fill="white"/>
<path d="M210.795 148.223C210.693 148.223 210.584 148.201 210.49 148.157C210.279 148.063 210.133 147.874 210.083 147.649L198.078 91.9797C198.02 91.7181 198.115 91.442 198.325 91.2676C198.536 91.0932 198.819 91.0496 199.067 91.1513C220.75 100.104 234.745 94.7773 244.969 90.8825C252.737 87.925 258.87 85.5852 264.77 90.7807C264.865 90.8679 264.938 90.9769 264.981 91.1005L281.193 140.317C281.295 140.629 281.171 140.978 280.895 141.152C280.619 141.334 280.248 141.298 280.008 141.072C265.94 128.094 244.054 130.332 211.143 148.128C211.034 148.186 210.918 148.215 210.795 148.215V148.223ZM199.786 93.0116L211.296 146.399C242.876 129.49 264.509 126.881 278.991 138.311L263.651 91.7544C258.456 87.3073 252.999 89.3856 245.478 92.2486C235.232 96.1507 221.273 101.47 199.786 93.0188V93.0116Z" fill="#3F3D56"/>
<path d="M223.933 67.1572L213.672 69.2791C213.672 69.2791 186.248 84.3716 191.437 90.0904C196.618 95.8091 218.643 96.5431 218.643 96.5431L223.191 89.5018L217.683 86.9222L231.65 75.4047L223.933 67.1572Z" fill="#A0616A"/>
<path d="M252.098 63.9963C252.098 63.9963 242.077 48.6276 232.289 55.4727C222.501 62.3177 213.68 69.2791 213.68 69.2791L225.873 84.6768L252.105 63.9963H252.098Z" fill="#E6E6E6"/>
<path d="M236.05 96.3833C236.609 93.622 232.588 90.4782 227.069 89.3614C221.551 88.2447 216.624 89.5778 216.065 92.3391C215.506 95.1004 219.527 98.2442 225.046 99.3609C230.564 100.478 235.491 99.1445 236.05 96.3833Z" fill="#A0616A"/>
<path d="M425.55 306.604C428.937 306.604 431.683 303.858 431.683 300.471C431.683 297.084 428.937 294.338 425.55 294.338C422.163 294.338 419.417 297.084 419.417 300.471C419.417 303.858 422.163 306.604 425.55 306.604Z" fill="#3F3D56"/>
<path d="M433.724 316.116C437.112 316.116 439.857 313.37 439.857 309.983C439.857 306.596 437.112 303.85 433.724 303.85C430.337 303.85 427.592 306.596 427.592 309.983C427.592 313.37 430.337 316.116 433.724 316.116Z" fill="#3F3D56"/>
<path d="M495.039 316.116C498.427 316.116 501.172 313.37 501.172 309.983C501.172 306.596 498.427 303.85 495.039 303.85C491.652 303.85 488.906 306.596 488.906 309.983C488.906 313.37 491.652 316.116 495.039 316.116Z" fill="#3F3D56"/>
<path d="M442.706 218.207V151.609C442.706 144.153 448.941 142.308 456.396 142.308C460.051 142.308 461.824 141.886 464.389 144.488C466.954 147.089 469.803 148.172 469.745 151.827L468.669 217.175L442.699 218.199L442.706 218.207ZM457.123 146.675C450.467 146.675 444.159 144.96 444.159 151.616V216.702L467.245 215.787L468.299 151.812C468.349 148.55 463.045 149 460.763 146.675C458.474 144.35 460.393 146.675 457.13 146.675H457.123Z" fill="#3F3D56"/>
<path d="M424.452 217.4L423.522 290.16C423.508 291.097 423.733 292.02 424.169 292.848L431.043 305.834C432.053 307.745 434.073 308.9 436.231 308.806L496.587 306.146C499.675 306.008 502.066 303.392 501.928 300.304L498.142 217.226C498.004 214.239 495.548 211.885 492.554 211.885H430.04C426.981 211.885 424.489 214.348 424.445 217.407L424.452 217.4Z" fill="#E6E6E6"/>
<path d="M448.243 250.237L446.79 250.165L447.327 239.396C447.618 233.597 452.392 228.946 458.198 228.808L483.9 228.213C489.088 228.125 493.39 232.057 493.673 237.245L494.218 247.091L492.765 247.171L492.22 237.325C491.973 232.929 488.303 229.557 483.929 229.666L458.227 230.262C453.177 230.378 449.028 234.425 448.773 239.468L448.236 250.237H448.243Z" fill="#3F3D56"/>
<path d="M447.218 302.397L445.772 302.251L448.904 271.688C449.486 266.035 454.202 261.58 459.877 261.326L484.946 260.2C488.107 260.054 491.108 261.174 493.404 263.346C495.701 265.519 496.98 268.455 497.016 271.616L497.299 298.226L495.846 298.24L495.563 271.63C495.534 268.869 494.415 266.304 492.409 264.4C490.403 262.496 487.766 261.522 485.019 261.646L459.949 262.772C454.986 262.997 450.866 266.885 450.358 271.826L447.226 302.389L447.218 302.397Z" fill="#3F3D56"/>
<path d="M435.984 300.282L434.531 300.26L435.447 230.414C435.512 225.64 439.298 221.789 444.072 221.644L493.484 220.19L493.528 221.644L444.116 223.097C440.119 223.213 436.951 226.432 436.9 230.429L435.984 300.275V300.282Z" fill="#3F3D56"/>
<path d="M436.115 290.334H435.105V226.723C435.105 224.71 433.47 223.068 431.45 223.068H425.804V221.615H431.45C434.117 221.615 436.311 223.671 436.537 226.272C436.551 226.418 436.558 226.57 436.558 226.723V256.843L436.115 290.334Z" fill="#3F3D56"/>
<path d="M344.063 35.5261C344.063 44.8418 336.513 52.3917 327.197 52.3917C317.881 52.3917 310.332 44.8418 310.332 35.5261C310.332 26.2104 317.881 18.6605 327.197 18.6605C336.513 18.6605 344.063 26.2104 344.063 35.5261Z" fill="#A0616A"/>
<path d="M325.853 12.8545C326.34 13.1379 326.994 12.7092 327.154 12.1642C327.313 11.6192 327.125 11.0451 326.95 10.5074C326.645 9.60635 326.347 8.71257 326.042 7.81152C325.395 5.90042 324.712 3.92393 323.317 2.47062C321.21 0.27613 317.852 -0.283393 314.837 0.123533C310.964 0.646723 307.142 2.73948 305.34 6.21288C303.537 9.68628 304.308 14.5258 307.563 16.6912C302.92 22.0103 301.307 27.9398 301.561 34.9883C301.815 42.0441 309.503 48.5331 314.517 53.5034C315.636 52.8276 316.653 49.6449 316.036 48.4895C315.418 47.3342 316.305 45.9971 315.542 44.9289C314.779 43.868 314.139 45.5611 314.91 44.5002C315.396 43.8317 313.5 42.2985 314.219 41.8988C317.714 39.9659 318.877 35.606 321.072 32.2706C323.724 28.245 328.251 25.52 333.054 25.0695C335.699 24.8225 338.489 25.273 340.655 26.8062C342.82 28.3395 344.223 31.0789 343.721 33.6876C345.022 32.3651 345.669 30.4322 345.429 28.5938C345.182 26.7554 344.056 25.055 342.45 24.1176C343.423 20.8985 342.588 17.1926 340.328 14.7075C338.068 12.215 328.905 12.6438 325.606 13.2977L325.86 12.8618L325.853 12.8545Z" fill="#2F2E41"/>
<path d="M325.344 25.164C320.977 25.6363 317.823 29.4222 315.157 32.9174C313.623 34.9302 312.01 37.1538 312.054 39.6898C312.09 42.2476 313.805 44.4494 314.626 46.8691C315.963 50.8366 314.662 55.5526 311.48 58.2703C314.626 58.8662 318.027 56.5118 318.565 53.3509C319.197 49.6813 316.414 46.1352 316.741 42.422C317.031 39.1521 319.611 36.6378 321.798 34.189C323.993 31.7402 326.049 28.4993 325.039 25.3747L325.344 25.164Z" fill="#2F2E41"/>
</g>
<defs>
<clipPath id="clip0_60_369">
<rect width="531.67" height="316.116" fill="white"/>
</clipPath>
</defs>
</svg>
