<svg width="65" height="32" viewBox="0 0 65 32" fill="none" xmlns="http://www.w3.org/2000/svg">
<path fill-rule="evenodd" clip-rule="evenodd" d="M31.9758 9.2475L29.103 22.7875H25.6283L28.5014 9.2475H31.9758ZM46.594 17.9906L48.4232 12.9056L49.4754 17.9906H46.594ZM50.4726 22.7875H53.6852L50.8782 9.2475H47.9146C47.2464 9.2475 46.6837 9.638 46.4344 10.2401L41.2206 22.7875H44.8699L45.5942 20.7655H50.0513L50.4726 22.7875ZM41.402 18.3671C41.4171 14.7939 36.5022 14.5957 36.5348 12.999C36.5455 12.5137 37.0044 11.9972 38.0082 11.8651C38.5057 11.8004 39.8787 11.748 41.4351 12.4709L42.0438 9.59839C41.2075 9.29367 40.1319 9 38.7936 9C35.3586 9 32.9422 10.8394 32.9228 13.4755C32.9009 15.4249 34.6492 16.5119 35.9634 17.1611C37.3184 17.8245 37.7725 18.2503 37.766 18.8431C37.7566 19.7515 36.6851 20.1538 35.6881 20.1688C33.94 20.1965 32.927 19.6928 32.1194 19.3131L31.4888 22.2816C32.3019 22.6566 33.8004 22.9834 35.3516 23C39.0032 23 41.3913 21.1822 41.402 18.3671ZM27.0109 9.24752L21.3811 22.7875H17.7086L14.9379 11.9816C14.77 11.3174 14.6236 11.0729 14.1128 10.7924C13.2773 10.3346 11.8978 9.90669 10.6851 9.64065L10.7671 9.24752H16.6796C17.4329 9.24752 18.1103 9.75275 18.2825 10.6274L19.7461 18.463L23.3606 9.24752H27.0109Z" fill="#B6B6B6"/>
</svg>
