<svg width="39" height="22" viewBox="0 0 39 22" fill="none" xmlns="http://www.w3.org/2000/svg">
<path d="M17.4145 12.9932L18.452 6.49658H20.0823L19.0448 12.9932H17.4145Z" fill="#B6B6B6"/>
<path d="M12.5977 6.49658H15.1914C16.8217 6.49658 17.2663 7.45632 17.044 8.5637C16.8958 9.52343 16.2288 10.114 15.3396 10.3355L16.9699 12.9932H14.8208L13.5611 10.4093L13.1905 12.9932H11.4861L12.5977 6.49658ZM14.0798 7.75162L13.7834 9.37578H14.3021C14.7467 9.37578 15.1914 9.00665 15.2655 8.5637C15.3396 8.12075 15.0432 7.75162 14.5244 7.75162H14.0798Z" fill="#B6B6B6"/>
<path d="M25.0472 12.9932L26.0847 6.49658H27.7891L26.7516 12.9932H25.0472Z" fill="#B6B6B6"/>
<path d="M30.531 7.89927L30.3087 9.00665H32.2354L32.0131 10.4093H30.0863L29.9381 11.5906H31.9389L31.7166 12.9932H28.0114L29.0489 6.49658H32.7541L32.5318 7.89927H30.531Z" fill="#B6B6B6"/>
<path d="M9.33718 7.89927L9.18897 9.00665H11.1157L10.8934 10.4093H8.96666L8.74434 11.5906H10.7452L10.5228 12.9932H6.81763L7.85509 6.49658H11.5603L11.338 7.89927H9.33718Z" fill="#B6B6B6"/>
<path d="M22.8241 7.89927L22.6759 9.00665H24.5285L24.3062 10.4093H22.4536L22.009 12.9932H20.3046L21.342 6.49658H25.1214L24.899 7.89927H22.8241Z" fill="#B6B6B6"/>
<path d="M35.9406 6.49658H33.7175L32.68 12.9932H34.9032C36.9781 12.9932 38.6825 11.5906 38.9789 9.74491C39.1271 8.48987 38.5343 6.49658 35.9406 6.49658ZM37.2004 9.67109C36.9781 10.8523 36.1629 11.5906 35.0514 11.5906C34.9032 11.5906 34.7549 11.5906 34.6067 11.5906L35.1996 7.89927C35.3478 7.89927 35.4219 7.89927 35.5701 7.89927C36.8299 7.89927 37.3486 8.78518 37.2004 9.67109Z" fill="#B6B6B6"/>
<path d="M0 5.61075H3.11239L3.48291 10.3356C5.55783 6.79196 7.63275 3.39598 9.78178 0H10.8192C8.59611 4.28189 6.37298 8.6376 4.22395 12.9933H1.92671L1.33388 7.7517C1.18567 6.49666 0.963357 5.90605 0 5.83223V5.61075Z" fill="#B6B6B6"/>
<path d="M4.22389 7.01333L6.66933 2.8791V2.73145H1.18561V2.8791L3.85337 4.06031L4.07568 7.01333H4.22389Z" fill="#EBEBEB"/>
<path d="M13.9316 16.6108C13.487 16.6108 13.1165 16.8323 12.8201 17.1276L13.1906 14.5437H12.079L11.2639 20.2283H12.3755L12.4496 19.7853C12.6719 20.0806 12.9683 20.3021 13.4129 20.3021C14.3022 20.3021 15.1173 19.49 15.2655 18.4565C15.4137 17.4229 14.8209 16.6108 13.9316 16.6108ZM14.0799 18.4565C14.0057 18.8994 13.6352 19.2685 13.2647 19.2685C12.8942 19.2685 12.5978 18.8994 12.6719 18.4565C12.746 18.0135 13.1165 17.6444 13.487 17.6444C13.8575 17.6444 14.154 18.0135 14.0799 18.4565Z" fill="#B6B6B6"/>
<path d="M18.3779 16.6846H19.6377L16.303 22H15.0432L16.4512 19.7852L15.3396 16.6846H16.5994L17.1922 18.5302L18.3779 16.6846Z" fill="#B6B6B6"/>
<path d="M27.1222 20.2283H25.566L27.3445 14.5437H28.9007L27.1222 20.2283Z" fill="#B6B6B6"/>
<path d="M24.8992 14.5437L22.8242 18.235L22.676 14.5437H20.0083V14.7652C20.8975 14.7652 21.0457 14.9128 21.1939 15.5773L21.7127 20.2283H23.343L26.6036 14.5437H24.8992Z" fill="#B6B6B6"/>
<path d="M35.0514 19.4162L34.6809 20.2283H32.9765L36.0889 14.5437H38.1638L38.6825 20.2283H37.4969H36.9781L36.904 19.4162H35.0514ZM35.5702 18.3088H36.904L36.7558 15.6511L35.5702 18.3088Z" fill="#B6B6B6"/>
<path d="M30.5309 20.3759C29.4194 20.3759 28.6783 20.0067 28.1596 19.7114L28.9007 18.6041C29.3453 18.8994 29.7158 19.1947 30.6051 19.1947C30.9015 19.1947 31.1238 19.1208 31.272 18.8994C31.4943 18.5302 31.1979 18.3088 30.6051 18.0135L30.3086 17.7182C29.4194 17.1275 28.9748 16.5369 29.4194 15.5034C29.7158 14.839 30.3827 14.396 31.5684 14.396C32.3836 14.396 33.1246 14.7651 33.5692 15.0604L32.68 16.0202C32.2353 15.651 31.8648 15.5034 31.4943 15.5034C31.1979 15.5034 30.9015 15.651 30.8274 15.7987C30.6792 16.094 30.9015 16.3155 31.3461 16.6108L31.7166 16.8322C32.8282 17.4967 33.0505 18.2349 32.8282 18.8994C32.4577 20.1544 31.4943 20.3759 30.5309 20.3759Z" fill="#B6B6B6"/>
</svg>
